<svg width="193" height="65" viewBox="0 0 193 65" fill="none" xmlns="http://www.w3.org/2000/svg">
<path d="M86 15.92C94.96 15.92 100.72 21.6 100.72 29.96C100.72 38.28 94.96 44 86 44H75.48V15.92H86ZM82.32 38.08H85.56C90.72 38.08 93.76 35.12 93.76 29.96C93.76 24.8 90.72 21.76 85.56 21.76H82.32V38.08ZM132.183 29.88C132.183 38.32 125.783 44.28 117.823 44.28C109.863 44.28 103.382 38.32 103.382 29.88C103.382 21.44 109.863 15.52 117.823 15.52C125.823 15.52 132.183 21.44 132.183 29.88ZM110.383 29.88C110.383 34.8 113.263 38.04 117.823 38.04C122.303 38.04 125.223 34.8 125.223 29.88C125.223 24.88 122.303 21.72 117.823 21.72C113.263 21.72 110.383 24.88 110.383 29.88ZM134.828 29.92C134.828 21.52 140.668 15.6 148.948 15.6C155.628 15.6 160.668 19.36 162.268 25.44H154.748C153.588 23.04 151.468 21.84 148.868 21.84C144.668 21.84 141.788 24.96 141.788 29.92C141.788 34.88 144.668 38 148.868 38C151.468 38 153.588 36.8 154.748 34.4H162.268C160.668 40.48 155.628 44.2 148.948 44.2C140.668 44.2 134.828 38.32 134.828 29.92ZM166.337 32.68V15.92H173.177V32.72C173.177 36.04 174.817 37.96 178.057 37.96C181.297 37.96 183.017 36.04 183.017 32.72V15.92H189.857V32.68C189.857 40.44 184.417 44.28 177.937 44.28C171.417 44.28 166.337 40.44 166.337 32.68Z" fill="#1E1E1E"/>
<path d="M77.4004 60H75.9004V51.4688H77.4004V60ZM80.0605 52.6875H73.2637V51.4688H80.0605V52.6875ZM84.209 51.4688C84.8613 51.4688 85.418 51.5664 85.8789 51.7617C86.3398 51.957 86.6914 52.2461 86.9336 52.6289C87.1797 53.0117 87.3027 53.4824 87.3027 54.041C87.3027 54.4707 87.2246 54.8477 87.0684 55.1719C86.9121 55.4961 86.6895 55.7695 86.4004 55.9922C86.1152 56.2109 85.7773 56.3809 85.3867 56.502L84.9297 56.7363H82.2285L82.2168 55.5234H84.2207C84.5684 55.5234 84.8574 55.4629 85.0879 55.3418C85.3223 55.2207 85.4961 55.0547 85.6094 54.8438C85.7266 54.6328 85.7852 54.3926 85.7852 54.123C85.7852 53.6855 85.6582 53.3379 85.4043 53.0801C85.1543 52.8184 84.7559 52.6875 84.209 52.6875H82.6914V60H81.1797V51.4688H84.209ZM84.0332 56.1738L85.6211 56.168L87.6426 59.9238V60H86.0254L84.0332 56.1738ZM89.5762 60H87.9883L91.1992 51.4688H92.207L92.1074 52.6816L89.5762 60ZM91.668 52.6816L91.5566 51.4688H92.5703L95.793 60H94.2051L91.668 52.6816ZM94.1055 58.0488H89.459V56.8301H94.1055V58.0488ZM103.533 60H102.016L98.2539 53.9883V60H96.7422V51.4688H98.2539L102.027 57.4922V51.4688H103.533V60ZM109.732 57.7969C109.732 57.5664 109.684 57.3711 109.586 57.2109C109.492 57.0469 109.314 56.8965 109.053 56.7598C108.791 56.6191 108.414 56.4727 107.922 56.3203C107.52 56.1992 107.146 56.0605 106.803 55.9043C106.463 55.748 106.166 55.5684 105.912 55.3652C105.658 55.1582 105.459 54.9199 105.314 54.6504C105.174 54.377 105.104 54.0625 105.104 53.707C105.104 53.2422 105.232 52.834 105.49 52.4824C105.748 52.127 106.105 51.8496 106.562 51.6504C107.02 51.4512 107.549 51.3516 108.15 51.3516C108.791 51.3516 109.342 51.4688 109.803 51.7031C110.264 51.9336 110.617 52.2461 110.863 52.6406C111.113 53.0352 111.238 53.4746 111.238 53.959H109.727C109.727 53.6895 109.668 53.4492 109.551 53.2383C109.438 53.0234 109.264 52.8574 109.029 52.7402C108.795 52.6191 108.496 52.5586 108.133 52.5586C107.793 52.5586 107.51 52.6094 107.283 52.7109C107.057 52.8125 106.889 52.9492 106.779 53.1211C106.67 53.293 106.615 53.4883 106.615 53.707C106.615 53.9141 106.682 54.0977 106.814 54.2578C106.947 54.418 107.148 54.5645 107.418 54.6973C107.688 54.8262 108.023 54.9512 108.426 55.0723C109.059 55.2559 109.584 55.4707 110.002 55.7168C110.42 55.9629 110.73 56.2539 110.934 56.5898C111.141 56.9258 111.244 57.3242 111.244 57.7852C111.244 58.2656 111.119 58.6816 110.869 59.0332C110.619 59.3809 110.266 59.6484 109.809 59.8359C109.352 60.0234 108.814 60.1172 108.197 60.1172C107.787 60.1172 107.383 60.0625 106.984 59.9531C106.586 59.8398 106.225 59.6719 105.9 59.4492C105.58 59.2227 105.322 58.9395 105.127 58.5996C104.936 58.2598 104.84 57.8594 104.84 57.3984H106.352C106.352 57.6719 106.398 57.9043 106.492 58.0957C106.586 58.2871 106.717 58.4453 106.885 58.5703C107.053 58.6914 107.248 58.7793 107.471 58.834C107.697 58.8887 107.939 58.916 108.197 58.916C108.537 58.916 108.82 58.8691 109.047 58.7754C109.273 58.6777 109.443 58.5449 109.557 58.377C109.674 58.209 109.732 58.0156 109.732 57.7969ZM119.072 57.2109C119.025 57.7695 118.867 58.2695 118.598 58.7109C118.332 59.1484 117.959 59.4922 117.479 59.7422C116.998 59.9922 116.41 60.1172 115.715 60.1172C115.012 60.1172 114.4 59.9531 113.881 59.625C113.365 59.293 112.967 58.8242 112.686 58.2188C112.408 57.6133 112.27 56.8984 112.27 56.0742V55.4004C112.27 54.5723 112.412 53.8574 112.697 53.2559C112.982 52.6504 113.387 52.1816 113.91 51.8496C114.438 51.5176 115.059 51.3516 115.773 51.3516C116.457 51.3516 117.033 51.4785 117.502 51.7324C117.975 51.9824 118.34 52.3301 118.598 52.7754C118.859 53.2168 119.018 53.7246 119.072 54.2988H117.566C117.508 53.7559 117.346 53.334 117.08 53.0332C116.818 52.7324 116.383 52.582 115.773 52.582C115.332 52.582 114.965 52.6914 114.672 52.9102C114.383 53.125 114.164 53.4414 114.016 53.8594C113.867 54.2734 113.793 54.7832 113.793 55.3887V56.0742C113.793 56.6523 113.859 57.1523 113.992 57.5742C114.125 57.9922 114.332 58.3164 114.613 58.5469C114.895 58.7734 115.262 58.8867 115.715 58.8867C116.129 58.8867 116.463 58.8223 116.717 58.6934C116.975 58.5645 117.17 58.377 117.303 58.1309C117.436 57.8809 117.521 57.5742 117.561 57.2109H119.072ZM123.408 51.4688C124.061 51.4688 124.617 51.5664 125.078 51.7617C125.539 51.957 125.891 52.2461 126.133 52.6289C126.379 53.0117 126.502 53.4824 126.502 54.041C126.502 54.4707 126.424 54.8477 126.268 55.1719C126.111 55.4961 125.889 55.7695 125.6 55.9922C125.314 56.2109 124.977 56.3809 124.586 56.502L124.129 56.7363H121.428L121.416 55.5234H123.42C123.768 55.5234 124.057 55.4629 124.287 55.3418C124.521 55.2207 124.695 55.0547 124.809 54.8438C124.926 54.6328 124.984 54.3926 124.984 54.123C124.984 53.6855 124.857 53.3379 124.604 53.0801C124.354 52.8184 123.955 52.6875 123.408 52.6875H121.891V60H120.379V51.4688H123.408ZM123.232 56.1738L124.82 56.168L126.842 59.9238V60H125.225L123.232 56.1738ZM129.531 60H128.025V51.4688H129.531V60ZM132.391 56.168L132.379 55.0664H134.266C134.738 55.0664 135.104 54.9629 135.361 54.7559C135.619 54.5488 135.748 54.2559 135.748 53.877C135.748 53.459 135.625 53.1562 135.379 52.9688C135.137 52.7812 134.76 52.6875 134.248 52.6875H132.848V60H131.336V51.4688H134.248C135.189 51.4688 135.926 51.6562 136.457 52.0312C136.992 52.4023 137.26 52.9844 137.26 53.7773C137.26 54.1289 137.174 54.4512 137.002 54.7441C136.834 55.0371 136.584 55.2754 136.252 55.459C135.92 55.6426 135.506 55.75 135.01 55.7812L134.553 56.168H132.391ZM131.91 60L132.596 58.7871H134.488C134.973 58.7871 135.338 58.668 135.584 58.4297C135.83 58.1914 135.953 57.8828 135.953 57.5039C135.953 57.2266 135.904 56.9883 135.807 56.7891C135.709 56.5898 135.559 56.4375 135.355 56.332C135.152 56.2227 134.885 56.168 134.553 56.168H132.889L132.9 55.0664H135.057L135.396 55.4883C135.869 55.4961 136.256 55.5957 136.557 55.7871C136.861 55.9785 137.088 56.2266 137.236 56.5312C137.385 56.832 137.459 57.1582 137.459 57.5098C137.459 58.3262 137.195 58.9453 136.668 59.3672C136.145 59.7891 135.418 60 134.488 60H131.91ZM144.525 60H140.02V58.7871H144.525V60ZM140.441 60H138.93V51.4688H140.441V60ZM143.934 56.2031H140.02V55.0078H143.934V56.2031ZM144.496 52.6875H140.02V51.4688H144.496V52.6875Z" fill="#1E1E1E"/>
<path d="M10 12.002H41.6667L50.7576 21.0929V48.0929C50.7576 51.4066 48.0713 54.0929 44.7576 54.0929H10V12.002Z" fill="url(#paint0_linear_2922_1058)"/>
<rect x="5.45312" y="56.0332" width="3.0303" height="49.0909" transform="rotate(-90 5.45312 56.0332)" fill="#9F77EB"/>
<rect x="5.45312" y="59.0645" width="1.81818" height="49.0909" transform="rotate(-90 5.45312 59.0645)" fill="#9F77EB"/>
<path d="M7.2713 61.4902C6.26715 61.4902 5.45312 60.6762 5.45312 59.6721L54.544 59.6721C54.544 60.6762 53.73 61.4902 52.7259 61.4902L7.2713 61.4902Z" fill="#9F77EB"/>
<rect x="33.1816" y="34.4277" width="2.42424" height="10.9091" transform="rotate(90 33.1816 34.4277)" fill="white"/>
<rect x="31.9697" y="28.9707" width="2.42424" height="9.69697" transform="rotate(90 31.9697 28.9707)" fill="white"/>
<rect x="28.9395" y="45.334" width="2.42424" height="6.66667" transform="rotate(90 28.9395 45.334)" fill="white"/>
<rect x="41.667" y="39.8809" width="2.42424" height="19.3939" transform="rotate(90 41.667 39.8809)" fill="white"/>
<path d="M50.7578 21.0918H41.6669V12.0009L46.5154 16.8494L50.7578 21.0918Z" fill="#DECDFF"/>
<rect y="51.1855" width="3.0303" height="60" transform="rotate(-90 0 51.1855)" fill="#9F77EB"/>
<defs>
<linearGradient id="paint0_linear_2922_1058" x1="30.3788" y1="12.002" x2="30.3788" y2="54.0929" gradientUnits="userSpaceOnUse">
<stop stop-color="#9F77EB"/>
<stop offset="1" stop-color="#9F77EB" stop-opacity="0"/>
</linearGradient>
</defs>
</svg>
