<svg width="585" height="537" viewBox="0 0 585 537" fill="none" xmlns="http://www.w3.org/2000/svg">
<path d="M19.1426 325H16.6328V310.781H19.1426V325ZM24.3184 325H21.8965V314.434H24.1719L24.3184 316.689V325ZM23.1074 319.346C23.1139 318.324 23.293 317.432 23.6445 316.67C23.9961 315.902 24.4876 315.306 25.1191 314.883C25.7507 314.453 26.4863 314.238 27.3262 314.238C28.0098 314.238 28.6022 314.368 29.1035 314.629C29.6048 314.883 29.9954 315.299 30.2754 315.879C30.5553 316.452 30.6953 317.223 30.6953 318.193V325H28.2637V318.174C28.2637 317.686 28.1921 317.298 28.0488 317.012C27.9121 316.725 27.7038 316.523 27.4238 316.406C27.1504 316.283 26.8151 316.221 26.418 316.221C26.0143 316.221 25.6562 316.302 25.3438 316.465C25.0378 316.621 24.7741 316.842 24.5527 317.129C24.3379 317.415 24.1719 317.747 24.0547 318.125C23.944 318.503 23.8887 318.906 23.8887 319.336L23.1074 319.346ZM42.0332 314.434V324.697C42.0332 325.648 41.8281 326.455 41.418 327.119C41.0078 327.79 40.4382 328.298 39.709 328.643C38.9863 328.988 38.1465 329.16 37.1895 329.16C36.7858 329.16 36.3366 329.102 35.8418 328.984C35.3535 328.874 34.8783 328.691 34.416 328.438C33.9538 328.184 33.5664 327.852 33.2539 327.441L34.3867 325.977C34.7643 326.413 35.1777 326.735 35.627 326.943C36.0827 327.158 36.5612 327.266 37.0625 327.266C37.8503 327.266 38.4688 327.048 38.918 326.611C39.3737 326.175 39.6016 325.55 39.6016 324.736V316.836L39.8262 314.434H42.0332ZM32.6582 319.629C32.6582 318.561 32.8275 317.624 33.166 316.816C33.5111 316.003 33.9993 315.371 34.6309 314.922C35.2689 314.466 36.0241 314.238 36.8965 314.238C37.5866 314.238 38.1758 314.365 38.6641 314.619C39.1523 314.867 39.556 315.225 39.875 315.693C40.2005 316.156 40.4544 316.709 40.6367 317.354C40.8255 317.992 40.9655 318.698 41.0566 319.473V320.039C40.9395 321.042 40.7214 321.93 40.4023 322.705C40.0833 323.48 39.6341 324.089 39.0547 324.531C38.4818 324.974 37.7559 325.195 36.877 325.195C36.0176 325.195 35.2721 324.964 34.6406 324.502C34.0091 324.033 33.5208 323.395 33.1758 322.588C32.8307 321.781 32.6582 320.863 32.6582 319.834V319.629ZM35.0801 319.834C35.0801 320.459 35.1647 321.029 35.334 321.543C35.5033 322.051 35.7637 322.458 36.1152 322.764C36.4733 323.063 36.9323 323.213 37.4922 323.213C38.0391 323.213 38.485 323.099 38.8301 322.871C39.1751 322.637 39.4421 322.321 39.6309 321.924C39.8262 321.527 39.9596 321.081 40.0312 320.586V318.936C39.9922 318.545 39.9141 318.184 39.7969 317.852C39.6862 317.52 39.5267 317.233 39.3184 316.992C39.1165 316.751 38.8659 316.562 38.5664 316.426C38.2669 316.289 37.9154 316.221 37.5117 316.221C36.9518 316.221 36.4928 316.374 36.1348 316.68C35.7767 316.979 35.5098 317.389 35.334 317.91C35.1647 318.424 35.0801 318.997 35.0801 319.629V319.834ZM49.1035 325.195C48.0553 325.195 47.1504 324.971 46.3887 324.521C45.627 324.066 45.041 323.454 44.6309 322.686C44.2207 321.911 44.0156 321.045 44.0156 320.088V319.688C44.0156 318.587 44.224 317.63 44.6406 316.816C45.0573 315.996 45.627 315.361 46.3496 314.912C47.0788 314.463 47.9023 314.238 48.8203 314.238C49.8359 314.238 50.679 314.46 51.3496 314.902C52.0202 315.339 52.5215 315.947 52.8535 316.729C53.1855 317.503 53.3516 318.402 53.3516 319.424V320.469H45.1777V318.721H50.959V318.535C50.946 318.125 50.8678 317.741 50.7246 317.383C50.5814 317.025 50.3535 316.735 50.041 316.514C49.735 316.292 49.3249 316.182 48.8105 316.182C48.2962 316.182 47.8633 316.328 47.5117 316.621C47.1602 316.908 46.8932 317.314 46.7109 317.842C46.5286 318.363 46.4375 318.978 46.4375 319.688V320.088C46.4375 320.687 46.5482 321.224 46.7695 321.699C46.9909 322.174 47.3132 322.552 47.7363 322.832C48.1595 323.105 48.6641 323.242 49.25 323.242C49.8164 323.242 50.3177 323.132 50.7539 322.91C51.1966 322.689 51.5775 322.37 51.8965 321.953L53.166 323.223C52.834 323.724 52.3327 324.18 51.6621 324.59C50.998 324.993 50.1452 325.195 49.1035 325.195ZM61.0664 322.119C61.0664 321.898 61.0078 321.696 60.8906 321.514C60.7799 321.331 60.5618 321.162 60.2363 321.006C59.9108 320.85 59.4323 320.706 58.8008 320.576C58.0521 320.42 57.3913 320.212 56.8184 319.951C56.252 319.691 55.8092 319.355 55.4902 318.945C55.1777 318.535 55.0215 318.034 55.0215 317.441C55.0215 316.868 55.1842 316.341 55.5098 315.859C55.8418 315.371 56.3138 314.98 56.9258 314.688C57.5443 314.388 58.2734 314.238 59.1133 314.238C59.9987 314.238 60.7604 314.388 61.3984 314.688C62.0365 314.98 62.5247 315.381 62.8633 315.889C63.2083 316.39 63.3809 316.96 63.3809 317.598H60.959C60.959 317.181 60.8027 316.816 60.4902 316.504C60.1842 316.185 59.722 316.025 59.1035 316.025C58.7194 316.025 58.3971 316.087 58.1367 316.211C57.8828 316.335 57.6908 316.494 57.5605 316.689C57.4368 316.885 57.375 317.1 57.375 317.334C57.375 317.562 57.4368 317.76 57.5605 317.93C57.6908 318.099 57.9089 318.249 58.2148 318.379C58.5273 318.509 58.9635 318.633 59.5234 318.75C60.3307 318.919 61.0273 319.134 61.6133 319.395C62.1992 319.648 62.6484 319.987 62.9609 320.41C63.2799 320.827 63.4395 321.357 63.4395 322.002C63.4395 322.62 63.2604 323.171 62.9023 323.652C62.5508 324.134 62.0527 324.512 61.4082 324.785C60.7702 325.059 60.015 325.195 59.1426 325.195C58.1725 325.195 57.3555 325.023 56.6914 324.678C56.0273 324.333 55.5228 323.893 55.1777 323.359C54.8392 322.819 54.6699 322.259 54.6699 321.68H57.0039C57.0299 322.096 57.1471 322.432 57.3555 322.686C57.5703 322.939 57.8372 323.125 58.1562 323.242C58.4818 323.353 58.8203 323.408 59.1719 323.408C59.5885 323.408 59.9336 323.353 60.207 323.242C60.487 323.132 60.6986 322.982 60.8418 322.793C60.9915 322.598 61.0664 322.373 61.0664 322.119ZM70.373 316.221H64.377V314.434H70.373V316.221ZM68.498 311.846V322.021C68.498 322.347 68.5436 322.594 68.6348 322.764C68.7259 322.926 68.8561 323.037 69.0254 323.096C69.1947 323.154 69.39 323.184 69.6113 323.184C69.7741 323.184 69.9303 323.174 70.0801 323.154C70.2298 323.135 70.3503 323.115 70.4414 323.096V324.961C70.2461 325.026 70.0182 325.081 69.7578 325.127C69.5039 325.173 69.2044 325.195 68.8594 325.195C68.319 325.195 67.8372 325.098 67.4141 324.902C66.9974 324.707 66.6686 324.391 66.4277 323.955C66.1934 323.512 66.0762 322.926 66.0762 322.197V311.846H68.498Z" fill="#1E1E1E"/>
<path d="M83.4844 143.352C83.4062 144.283 83.1426 145.116 82.6934 145.852C82.2507 146.581 81.6289 147.154 80.8281 147.57C80.0273 147.987 79.0475 148.195 77.8887 148.195C76.7168 148.195 75.6979 147.922 74.832 147.375C73.9727 146.822 73.3086 146.04 72.8398 145.031C72.3776 144.022 72.1465 142.831 72.1465 141.457V140.334C72.1465 138.954 72.3841 137.762 72.8594 136.76C73.3346 135.751 74.0085 134.969 74.8809 134.416C75.7598 133.863 76.7949 133.586 77.9863 133.586C79.1257 133.586 80.0859 133.798 80.8672 134.221C81.6549 134.637 82.2637 135.217 82.6934 135.959C83.1296 136.695 83.3932 137.541 83.4844 138.498H80.9746C80.877 137.593 80.6068 136.89 80.1641 136.389C79.7279 135.887 79.002 135.637 77.9863 135.637C77.2507 135.637 76.6387 135.819 76.1504 136.184C75.6686 136.542 75.304 137.069 75.0566 137.766C74.8092 138.456 74.6855 139.305 74.6855 140.314V141.457C74.6855 142.421 74.7962 143.254 75.0176 143.957C75.2389 144.654 75.584 145.194 76.0527 145.578C76.5215 145.956 77.1335 146.145 77.8887 146.145C78.5788 146.145 79.1354 146.037 79.5586 145.822C79.9883 145.607 80.3138 145.295 80.5352 144.885C80.7565 144.468 80.8997 143.957 80.9648 143.352H83.4844ZM88.0156 148H85.5938V133H88.0156V148ZM96.502 140.861C96.502 140.314 96.349 139.878 96.043 139.553C95.7435 139.227 95.2878 139.064 94.6758 139.064C94.3112 139.064 93.9922 139.13 93.7188 139.26C93.4453 139.383 93.2337 139.553 93.084 139.768C92.9342 139.982 92.8594 140.227 92.8594 140.5H90.4375C90.4375 139.934 90.6165 139.403 90.9746 138.908C91.3327 138.407 91.8372 138.003 92.4883 137.697C93.1458 137.391 93.9206 137.238 94.8125 137.238C95.6068 137.238 96.3132 137.372 96.9316 137.639C97.5501 137.906 98.0352 138.309 98.3867 138.85C98.7448 139.39 98.9238 140.067 98.9238 140.881V145.539C98.9238 146.034 98.9596 146.47 99.0312 146.848C99.1029 147.225 99.2038 147.554 99.334 147.834V148H96.8535C96.7428 147.746 96.6549 147.417 96.5898 147.014C96.5312 146.61 96.502 146.216 96.502 145.832V140.861ZM96.873 143.059H95.2129C94.3535 143.059 93.7057 143.218 93.2695 143.537C92.8398 143.85 92.625 144.276 92.625 144.816C92.625 145.233 92.7682 145.581 93.0547 145.861C93.3411 146.135 93.7448 146.271 94.2656 146.271C94.7409 146.271 95.1543 146.177 95.5059 145.988C95.8639 145.793 96.1439 145.555 96.3457 145.275C96.5475 144.989 96.6517 144.722 96.6582 144.475L97.4297 145.559C97.3516 145.826 97.2181 146.112 97.0293 146.418C96.847 146.717 96.6029 147.004 96.2969 147.277C95.9974 147.544 95.6393 147.766 95.2227 147.941C94.8125 148.111 94.334 148.195 93.7871 148.195C93.097 148.195 92.4818 148.059 91.9414 147.785C91.401 147.512 90.9746 147.137 90.6621 146.662C90.3561 146.18 90.2031 145.64 90.2031 145.041C90.2031 143.921 90.623 143.062 91.4629 142.463C92.3027 141.864 93.4941 141.564 95.0371 141.564H96.8535L96.873 143.059ZM107.273 145.119C107.273 144.898 107.215 144.696 107.098 144.514C106.987 144.331 106.769 144.162 106.443 144.006C106.118 143.85 105.639 143.706 105.008 143.576C104.259 143.42 103.598 143.212 103.025 142.951C102.459 142.691 102.016 142.355 101.697 141.945C101.385 141.535 101.229 141.034 101.229 140.441C101.229 139.868 101.391 139.341 101.717 138.859C102.049 138.371 102.521 137.98 103.133 137.688C103.751 137.388 104.48 137.238 105.32 137.238C106.206 137.238 106.967 137.388 107.605 137.688C108.243 137.98 108.732 138.381 109.07 138.889C109.415 139.39 109.588 139.96 109.588 140.598H107.166C107.166 140.181 107.01 139.816 106.697 139.504C106.391 139.185 105.929 139.025 105.311 139.025C104.926 139.025 104.604 139.087 104.344 139.211C104.09 139.335 103.898 139.494 103.768 139.689C103.644 139.885 103.582 140.1 103.582 140.334C103.582 140.562 103.644 140.76 103.768 140.93C103.898 141.099 104.116 141.249 104.422 141.379C104.734 141.509 105.171 141.633 105.73 141.75C106.538 141.919 107.234 142.134 107.82 142.395C108.406 142.648 108.855 142.987 109.168 143.41C109.487 143.827 109.646 144.357 109.646 145.002C109.646 145.62 109.467 146.171 109.109 146.652C108.758 147.134 108.26 147.512 107.615 147.785C106.977 148.059 106.222 148.195 105.35 148.195C104.38 148.195 103.562 148.023 102.898 147.678C102.234 147.333 101.73 146.893 101.385 146.359C101.046 145.819 100.877 145.259 100.877 144.68H103.211C103.237 145.096 103.354 145.432 103.562 145.686C103.777 145.939 104.044 146.125 104.363 146.242C104.689 146.353 105.027 146.408 105.379 146.408C105.796 146.408 106.141 146.353 106.414 146.242C106.694 146.132 106.906 145.982 107.049 145.793C107.199 145.598 107.273 145.373 107.273 145.119ZM117.586 145.119C117.586 144.898 117.527 144.696 117.41 144.514C117.299 144.331 117.081 144.162 116.756 144.006C116.43 143.85 115.952 143.706 115.32 143.576C114.572 143.42 113.911 143.212 113.338 142.951C112.771 142.691 112.329 142.355 112.01 141.945C111.697 141.535 111.541 141.034 111.541 140.441C111.541 139.868 111.704 139.341 112.029 138.859C112.361 138.371 112.833 137.98 113.445 137.688C114.064 137.388 114.793 137.238 115.633 137.238C116.518 137.238 117.28 137.388 117.918 137.688C118.556 137.98 119.044 138.381 119.383 138.889C119.728 139.39 119.9 139.96 119.9 140.598H117.479C117.479 140.181 117.322 139.816 117.01 139.504C116.704 139.185 116.242 139.025 115.623 139.025C115.239 139.025 114.917 139.087 114.656 139.211C114.402 139.335 114.21 139.494 114.08 139.689C113.956 139.885 113.895 140.1 113.895 140.334C113.895 140.562 113.956 140.76 114.08 140.93C114.21 141.099 114.428 141.249 114.734 141.379C115.047 141.509 115.483 141.633 116.043 141.75C116.85 141.919 117.547 142.134 118.133 142.395C118.719 142.648 119.168 142.987 119.48 143.41C119.799 143.827 119.959 144.357 119.959 145.002C119.959 145.62 119.78 146.171 119.422 146.652C119.07 147.134 118.572 147.512 117.928 147.785C117.29 148.059 116.535 148.195 115.662 148.195C114.692 148.195 113.875 148.023 113.211 147.678C112.547 147.333 112.042 146.893 111.697 146.359C111.359 145.819 111.189 145.259 111.189 144.68H113.523C113.549 145.096 113.667 145.432 113.875 145.686C114.09 145.939 114.357 146.125 114.676 146.242C115.001 146.353 115.34 146.408 115.691 146.408C116.108 146.408 116.453 146.353 116.727 146.242C117.007 146.132 117.218 145.982 117.361 145.793C117.511 145.598 117.586 145.373 117.586 145.119ZM124.578 148H122.156V137.434H124.578V148ZM122 134.67C122 134.299 122.12 133.993 122.361 133.752C122.602 133.505 122.938 133.381 123.367 133.381C123.797 133.381 124.135 133.505 124.383 133.752C124.63 133.993 124.754 134.299 124.754 134.67C124.754 135.035 124.63 135.34 124.383 135.588C124.135 135.829 123.797 135.949 123.367 135.949C122.938 135.949 122.602 135.829 122.361 135.588C122.12 135.34 122 135.035 122 134.67ZM127.957 148V136.428C127.957 135.256 128.289 134.357 128.953 133.732C129.617 133.107 130.525 132.795 131.678 132.795C131.912 132.795 132.143 132.811 132.371 132.844C132.599 132.876 132.82 132.919 133.035 132.971L132.977 134.865C132.853 134.839 132.713 134.82 132.557 134.807C132.4 134.794 132.238 134.787 132.068 134.787C131.535 134.787 131.118 134.93 130.818 135.217C130.525 135.497 130.379 135.9 130.379 136.428V148H127.957ZM132.537 139.221H126.346V137.434H132.537V139.221ZM140.125 137.434H142.713L138.484 149.602C138.387 149.868 138.26 150.155 138.104 150.461C137.947 150.767 137.742 151.057 137.488 151.33C137.241 151.604 136.928 151.828 136.551 152.004C136.18 152.18 135.73 152.268 135.203 152.268C135.06 152.268 134.92 152.258 134.783 152.238C134.653 152.225 134.526 152.206 134.402 152.18C134.279 152.154 134.158 152.124 134.041 152.092V150.227C134.106 150.233 134.184 150.24 134.275 150.246C134.367 150.253 134.441 150.256 134.5 150.256C135.079 150.256 135.519 150.152 135.818 149.943C136.118 149.735 136.349 149.38 136.512 148.879L137.283 146.838L140.125 137.434ZM138.201 145.256L138.631 147.873L136.951 148.254L133.133 137.434H135.75L138.201 145.256Z" fill="#1E1E1E"/>
<path d="M263.934 77.3516C263.855 78.2826 263.592 79.1159 263.143 79.8516C262.7 80.5807 262.078 81.1536 261.277 81.5703C260.477 81.987 259.497 82.1953 258.338 82.1953C257.166 82.1953 256.147 81.9219 255.281 81.375C254.422 80.8216 253.758 80.0404 253.289 79.0312C252.827 78.0221 252.596 76.8307 252.596 75.457V74.334C252.596 72.9538 252.833 71.7624 253.309 70.7598C253.784 69.7507 254.458 68.9694 255.33 68.416C256.209 67.8626 257.244 67.5859 258.436 67.5859C259.575 67.5859 260.535 67.7975 261.316 68.2207C262.104 68.6374 262.713 69.2168 263.143 69.959C263.579 70.6947 263.842 71.541 263.934 72.498H261.424C261.326 71.5931 261.056 70.89 260.613 70.3887C260.177 69.8874 259.451 69.6367 258.436 69.6367C257.7 69.6367 257.088 69.819 256.6 70.1836C256.118 70.5417 255.753 71.069 255.506 71.7656C255.258 72.4557 255.135 73.3053 255.135 74.3145V75.457C255.135 76.4206 255.245 77.2539 255.467 77.957C255.688 78.6536 256.033 79.194 256.502 79.5781C256.971 79.9557 257.583 80.1445 258.338 80.1445C259.028 80.1445 259.585 80.0371 260.008 79.8223C260.438 79.6074 260.763 79.2949 260.984 78.8848C261.206 78.4681 261.349 77.957 261.414 77.3516H263.934ZM271.814 74.8613C271.814 74.3145 271.661 73.8783 271.355 73.5527C271.056 73.2272 270.6 73.0645 269.988 73.0645C269.624 73.0645 269.305 73.1296 269.031 73.2598C268.758 73.3835 268.546 73.5527 268.396 73.7676C268.247 73.9824 268.172 74.2266 268.172 74.5H265.75C265.75 73.9336 265.929 73.403 266.287 72.9082C266.645 72.4069 267.15 72.0033 267.801 71.6973C268.458 71.3913 269.233 71.2383 270.125 71.2383C270.919 71.2383 271.626 71.3717 272.244 71.6387C272.863 71.9056 273.348 72.3092 273.699 72.8496C274.057 73.39 274.236 74.0671 274.236 74.8809V79.5391C274.236 80.0339 274.272 80.4701 274.344 80.8477C274.415 81.2253 274.516 81.554 274.646 81.834V82H272.166C272.055 81.7461 271.967 81.4173 271.902 81.0137C271.844 80.61 271.814 80.2161 271.814 79.832V74.8613ZM272.186 77.0586H270.525C269.666 77.0586 269.018 77.2181 268.582 77.5371C268.152 77.8496 267.938 78.276 267.938 78.8164C267.938 79.2331 268.081 79.5814 268.367 79.8613C268.654 80.1348 269.057 80.2715 269.578 80.2715C270.053 80.2715 270.467 80.1771 270.818 79.9883C271.176 79.793 271.456 79.5553 271.658 79.2754C271.86 78.9889 271.964 78.722 271.971 78.4746L272.742 79.5586C272.664 79.8255 272.531 80.112 272.342 80.418C272.16 80.7174 271.915 81.0039 271.609 81.2773C271.31 81.5443 270.952 81.7656 270.535 81.9414C270.125 82.1107 269.646 82.1953 269.1 82.1953C268.41 82.1953 267.794 82.0586 267.254 81.7852C266.714 81.5117 266.287 81.1374 265.975 80.6621C265.669 80.1803 265.516 79.64 265.516 79.041C265.516 77.9212 265.936 77.0618 266.775 76.4629C267.615 75.8639 268.807 75.5645 270.35 75.5645H272.166L272.186 77.0586ZM279.109 86.0625H276.688V71.4336H278.924L279.109 73.4648V86.0625ZM285.965 76.8145C285.965 77.8431 285.805 78.7643 285.486 79.5781C285.174 80.3854 284.712 81.0234 284.1 81.4922C283.494 81.9609 282.752 82.1953 281.873 82.1953C280.988 82.1953 280.252 81.9805 279.666 81.5508C279.087 81.1146 278.634 80.5156 278.309 79.7539C277.983 78.9922 277.758 78.123 277.635 77.1465V76.4531C277.758 75.4115 277.983 74.5033 278.309 73.7285C278.634 72.9473 279.087 72.3385 279.666 71.9023C280.245 71.4596 280.971 71.2383 281.844 71.2383C282.736 71.2383 283.488 71.4629 284.1 71.9121C284.712 72.3613 285.174 72.9896 285.486 73.7969C285.805 74.6042 285.965 75.5417 285.965 76.6094V76.8145ZM283.543 76.6094C283.543 75.9779 283.462 75.4049 283.299 74.8906C283.143 74.3763 282.889 73.9694 282.537 73.6699C282.192 73.3704 281.74 73.2207 281.18 73.2207C280.776 73.2207 280.428 73.2891 280.135 73.4258C279.842 73.556 279.594 73.7415 279.393 73.9824C279.197 74.2233 279.044 74.5098 278.934 74.8418C278.823 75.1673 278.745 75.5254 278.699 75.916V77.6836C278.777 78.1523 278.908 78.582 279.09 78.9727C279.272 79.3633 279.533 79.6758 279.871 79.9102C280.216 80.138 280.659 80.252 281.199 80.252C281.759 80.252 282.212 80.0957 282.557 79.7832C282.902 79.4642 283.152 79.0475 283.309 78.5332C283.465 78.0124 283.543 77.4395 283.543 76.8145V76.6094ZM292.83 73.2207H286.834V71.4336H292.83V73.2207ZM290.955 68.8457V79.0215C290.955 79.347 291.001 79.5944 291.092 79.7637C291.183 79.9264 291.313 80.0371 291.482 80.0957C291.652 80.1543 291.847 80.1836 292.068 80.1836C292.231 80.1836 292.387 80.1738 292.537 80.1543C292.687 80.1348 292.807 80.1152 292.898 80.0957V81.9609C292.703 82.026 292.475 82.0814 292.215 82.127C291.961 82.1725 291.661 82.1953 291.316 82.1953C290.776 82.1953 290.294 82.0977 289.871 81.9023C289.454 81.707 289.126 81.3913 288.885 80.9551C288.65 80.5124 288.533 79.9264 288.533 79.1973V68.8457H290.955ZM300.945 71.4336H303.367V82H301.082L300.945 79.5V71.4336ZM302.088 77.2734C302.088 78.224 301.948 79.0703 301.668 79.8125C301.388 80.5482 300.952 81.1309 300.359 81.5605C299.767 81.9837 298.999 82.1953 298.055 82.1953C297.013 82.1953 296.17 81.8893 295.525 81.2773C294.881 80.6654 294.559 79.6595 294.559 78.2598V71.4336H296.98V78.2793C296.98 78.7676 297.055 79.1549 297.205 79.4414C297.361 79.7214 297.566 79.9199 297.82 80.0371C298.074 80.1543 298.354 80.2129 298.66 80.2129C299.318 80.2129 299.835 80.0859 300.213 79.832C300.597 79.5716 300.87 79.2201 301.033 78.7773C301.196 78.3346 301.277 77.8398 301.277 77.293L302.088 77.2734ZM308.172 82H305.75V71.4336H308.055L308.172 73.5039V82ZM311.355 73.6602C311.206 73.6341 311.046 73.6146 310.877 73.6016C310.714 73.5885 310.551 73.582 310.389 73.582C309.855 73.582 309.409 73.6797 309.051 73.875C308.699 74.0638 308.432 74.3372 308.25 74.6953C308.068 75.0469 307.96 75.4635 307.928 75.9453L307.371 75.9551C307.371 75.0632 307.488 74.2624 307.723 73.5527C307.957 72.8431 308.309 72.2799 308.777 71.8633C309.246 71.4466 309.832 71.2383 310.535 71.2383C310.672 71.2383 310.825 71.2513 310.994 71.2773C311.163 71.3034 311.29 71.3327 311.375 71.3652L311.355 73.6602ZM317.518 82.1953C316.469 82.1953 315.564 81.9707 314.803 81.5215C314.041 81.0658 313.455 80.4538 313.045 79.6855C312.635 78.9108 312.43 78.0449 312.43 77.0879V76.6875C312.43 75.5872 312.638 74.6302 313.055 73.8164C313.471 72.9961 314.041 72.3613 314.764 71.9121C315.493 71.4629 316.316 71.2383 317.234 71.2383C318.25 71.2383 319.093 71.4596 319.764 71.9023C320.434 72.3385 320.936 72.9473 321.268 73.7285C321.6 74.5033 321.766 75.4017 321.766 76.4238V77.4688H313.592V75.7207H319.373V75.5352C319.36 75.125 319.282 74.7409 319.139 74.3828C318.995 74.0247 318.768 73.735 318.455 73.5137C318.149 73.2923 317.739 73.1816 317.225 73.1816C316.71 73.1816 316.277 73.3281 315.926 73.6211C315.574 73.9076 315.307 74.3145 315.125 74.8418C314.943 75.3626 314.852 75.9779 314.852 76.6875V77.0879C314.852 77.6868 314.962 78.224 315.184 78.6992C315.405 79.1745 315.727 79.5521 316.15 79.832C316.574 80.1055 317.078 80.2422 317.664 80.2422C318.23 80.2422 318.732 80.1315 319.168 79.9102C319.611 79.6888 319.992 79.3698 320.311 78.9531L321.58 80.2227C321.248 80.724 320.747 81.1797 320.076 81.5898C319.412 81.9935 318.559 82.1953 317.518 82.1953Z" fill="#1E1E1E"/>
<path d="M448.613 135.781H451.396L446.318 150H444.434L444.912 147.314L448.613 135.781ZM445.195 147.314L445.703 150H443.818L438.75 135.781H441.523L445.195 147.314ZM457.422 150.195C456.374 150.195 455.469 149.971 454.707 149.521C453.945 149.066 453.359 148.454 452.949 147.686C452.539 146.911 452.334 146.045 452.334 145.088V144.688C452.334 143.587 452.542 142.63 452.959 141.816C453.376 140.996 453.945 140.361 454.668 139.912C455.397 139.463 456.221 139.238 457.139 139.238C458.154 139.238 458.997 139.46 459.668 139.902C460.339 140.339 460.84 140.947 461.172 141.729C461.504 142.503 461.67 143.402 461.67 144.424V145.469H453.496V143.721H459.277V143.535C459.264 143.125 459.186 142.741 459.043 142.383C458.9 142.025 458.672 141.735 458.359 141.514C458.053 141.292 457.643 141.182 457.129 141.182C456.615 141.182 456.182 141.328 455.83 141.621C455.479 141.908 455.212 142.314 455.029 142.842C454.847 143.363 454.756 143.978 454.756 144.688V145.088C454.756 145.687 454.867 146.224 455.088 146.699C455.309 147.174 455.632 147.552 456.055 147.832C456.478 148.105 456.982 148.242 457.568 148.242C458.135 148.242 458.636 148.132 459.072 147.91C459.515 147.689 459.896 147.37 460.215 146.953L461.484 148.223C461.152 148.724 460.651 149.18 459.98 149.59C459.316 149.993 458.464 150.195 457.422 150.195ZM465.908 150H463.486V139.434H465.791L465.908 141.504V150ZM469.092 141.66C468.942 141.634 468.783 141.615 468.613 141.602C468.451 141.589 468.288 141.582 468.125 141.582C467.591 141.582 467.145 141.68 466.787 141.875C466.436 142.064 466.169 142.337 465.986 142.695C465.804 143.047 465.697 143.464 465.664 143.945L465.107 143.955C465.107 143.063 465.225 142.262 465.459 141.553C465.693 140.843 466.045 140.28 466.514 139.863C466.982 139.447 467.568 139.238 468.271 139.238C468.408 139.238 468.561 139.251 468.73 139.277C468.9 139.303 469.027 139.333 469.111 139.365L469.092 141.66ZM473.154 150H470.732V139.434H473.154V150ZM470.576 136.67C470.576 136.299 470.697 135.993 470.938 135.752C471.178 135.505 471.514 135.381 471.943 135.381C472.373 135.381 472.712 135.505 472.959 135.752C473.206 135.993 473.33 136.299 473.33 136.67C473.33 137.035 473.206 137.34 472.959 137.588C472.712 137.829 472.373 137.949 471.943 137.949C471.514 137.949 471.178 137.829 470.938 137.588C470.697 137.34 470.576 137.035 470.576 136.67ZM476.533 150V138.428C476.533 137.256 476.865 136.357 477.529 135.732C478.193 135.107 479.102 134.795 480.254 134.795C480.488 134.795 480.719 134.811 480.947 134.844C481.175 134.876 481.396 134.919 481.611 134.971L481.553 136.865C481.429 136.839 481.289 136.82 481.133 136.807C480.977 136.794 480.814 136.787 480.645 136.787C480.111 136.787 479.694 136.93 479.395 137.217C479.102 137.497 478.955 137.9 478.955 138.428V150H476.533ZM481.113 141.221H474.922V139.434H481.113V141.221ZM488.701 139.434H491.289L487.061 151.602C486.963 151.868 486.836 152.155 486.68 152.461C486.523 152.767 486.318 153.057 486.064 153.33C485.817 153.604 485.505 153.828 485.127 154.004C484.756 154.18 484.307 154.268 483.779 154.268C483.636 154.268 483.496 154.258 483.359 154.238C483.229 154.225 483.102 154.206 482.979 154.18C482.855 154.154 482.734 154.124 482.617 154.092V152.227C482.682 152.233 482.76 152.24 482.852 152.246C482.943 152.253 483.018 152.256 483.076 152.256C483.656 152.256 484.095 152.152 484.395 151.943C484.694 151.735 484.925 151.38 485.088 150.879L485.859 148.838L488.701 139.434ZM486.777 147.256L487.207 149.873L485.527 150.254L481.709 139.434H484.326L486.777 147.256Z" fill="#1E1E1E"/>
<path d="M510.498 294H507.852L513.203 279.781H514.883L514.717 281.803L510.498 294ZM513.984 281.803L513.799 279.781H515.488L520.859 294H518.213L513.984 281.803ZM518.047 290.748H510.303V288.717H518.047V290.748ZM524.639 298.062H522.217V283.434H524.453L524.639 285.465V298.062ZM531.494 288.814C531.494 289.843 531.335 290.764 531.016 291.578C530.703 292.385 530.241 293.023 529.629 293.492C529.023 293.961 528.281 294.195 527.402 294.195C526.517 294.195 525.781 293.98 525.195 293.551C524.616 293.115 524.163 292.516 523.838 291.754C523.512 290.992 523.288 290.123 523.164 289.146V288.453C523.288 287.411 523.512 286.503 523.838 285.729C524.163 284.947 524.616 284.339 525.195 283.902C525.775 283.46 526.501 283.238 527.373 283.238C528.265 283.238 529.017 283.463 529.629 283.912C530.241 284.361 530.703 284.99 531.016 285.797C531.335 286.604 531.494 287.542 531.494 288.609V288.814ZM529.072 288.609C529.072 287.978 528.991 287.405 528.828 286.891C528.672 286.376 528.418 285.969 528.066 285.67C527.721 285.37 527.269 285.221 526.709 285.221C526.305 285.221 525.957 285.289 525.664 285.426C525.371 285.556 525.124 285.742 524.922 285.982C524.727 286.223 524.574 286.51 524.463 286.842C524.352 287.167 524.274 287.525 524.229 287.916V289.684C524.307 290.152 524.437 290.582 524.619 290.973C524.801 291.363 525.062 291.676 525.4 291.91C525.745 292.138 526.188 292.252 526.729 292.252C527.288 292.252 527.741 292.096 528.086 291.783C528.431 291.464 528.682 291.048 528.838 290.533C528.994 290.012 529.072 289.439 529.072 288.814V288.609ZM535.889 298.062H533.467V283.434H535.703L535.889 285.465V298.062ZM542.744 288.814C542.744 289.843 542.585 290.764 542.266 291.578C541.953 292.385 541.491 293.023 540.879 293.492C540.273 293.961 539.531 294.195 538.652 294.195C537.767 294.195 537.031 293.98 536.445 293.551C535.866 293.115 535.413 292.516 535.088 291.754C534.762 290.992 534.538 290.123 534.414 289.146V288.453C534.538 287.411 534.762 286.503 535.088 285.729C535.413 284.947 535.866 284.339 536.445 283.902C537.025 283.46 537.751 283.238 538.623 283.238C539.515 283.238 540.267 283.463 540.879 283.912C541.491 284.361 541.953 284.99 542.266 285.797C542.585 286.604 542.744 287.542 542.744 288.609V288.814ZM540.322 288.609C540.322 287.978 540.241 287.405 540.078 286.891C539.922 286.376 539.668 285.969 539.316 285.67C538.971 285.37 538.519 285.221 537.959 285.221C537.555 285.221 537.207 285.289 536.914 285.426C536.621 285.556 536.374 285.742 536.172 285.982C535.977 286.223 535.824 286.51 535.713 286.842C535.602 287.167 535.524 287.525 535.479 287.916V289.684C535.557 290.152 535.687 290.582 535.869 290.973C536.051 291.363 536.312 291.676 536.65 291.91C536.995 292.138 537.438 292.252 537.979 292.252C538.538 292.252 538.991 292.096 539.336 291.783C539.681 291.464 539.932 291.048 540.088 290.533C540.244 290.012 540.322 289.439 540.322 288.814V288.609ZM547.139 294H544.717V283.434H547.021L547.139 285.504V294ZM550.322 285.66C550.173 285.634 550.013 285.615 549.844 285.602C549.681 285.589 549.518 285.582 549.355 285.582C548.822 285.582 548.376 285.68 548.018 285.875C547.666 286.064 547.399 286.337 547.217 286.695C547.035 287.047 546.927 287.464 546.895 287.945L546.338 287.955C546.338 287.063 546.455 286.262 546.689 285.553C546.924 284.843 547.275 284.28 547.744 283.863C548.213 283.447 548.799 283.238 549.502 283.238C549.639 283.238 549.792 283.251 549.961 283.277C550.13 283.303 550.257 283.333 550.342 283.365L550.322 285.66ZM551.162 288.619C551.162 287.59 551.357 286.673 551.748 285.865C552.139 285.058 552.699 284.42 553.428 283.951C554.163 283.476 555.046 283.238 556.074 283.238C557.116 283.238 558.005 283.476 558.74 283.951C559.476 284.42 560.036 285.058 560.42 285.865C560.811 286.673 561.006 287.59 561.006 288.619V288.824C561.006 289.846 560.811 290.764 560.42 291.578C560.036 292.385 559.476 293.023 558.74 293.492C558.011 293.961 557.129 294.195 556.094 294.195C555.059 294.195 554.173 293.961 553.438 293.492C552.702 293.023 552.139 292.385 551.748 291.578C551.357 290.764 551.162 289.846 551.162 288.824V288.619ZM553.584 288.824C553.584 289.449 553.672 290.022 553.848 290.543C554.023 291.057 554.294 291.471 554.658 291.783C555.029 292.096 555.508 292.252 556.094 292.252C556.673 292.252 557.145 292.096 557.51 291.783C557.881 291.471 558.151 291.057 558.32 290.543C558.496 290.022 558.584 289.449 558.584 288.824V288.619C558.584 288.001 558.496 287.431 558.32 286.91C558.151 286.389 557.881 285.973 557.51 285.66C557.139 285.341 556.66 285.182 556.074 285.182C555.495 285.182 555.02 285.341 554.648 285.66C554.284 285.973 554.014 286.389 553.838 286.91C553.669 287.431 553.584 288.001 553.584 288.619V288.824ZM568.809 283.434H571.318L567.666 294H566.104L566.26 292.086L568.809 283.434ZM566.943 292.115L567.061 294H565.508L561.826 283.434H564.346L566.943 292.115ZM577.441 294.195C576.393 294.195 575.488 293.971 574.727 293.521C573.965 293.066 573.379 292.454 572.969 291.686C572.559 290.911 572.354 290.045 572.354 289.088V288.688C572.354 287.587 572.562 286.63 572.979 285.816C573.395 284.996 573.965 284.361 574.688 283.912C575.417 283.463 576.24 283.238 577.158 283.238C578.174 283.238 579.017 283.46 579.688 283.902C580.358 284.339 580.859 284.947 581.191 285.729C581.523 286.503 581.689 287.402 581.689 288.424V289.469H573.516V287.721H579.297V287.535C579.284 287.125 579.206 286.741 579.062 286.383C578.919 286.025 578.691 285.735 578.379 285.514C578.073 285.292 577.663 285.182 577.148 285.182C576.634 285.182 576.201 285.328 575.85 285.621C575.498 285.908 575.231 286.314 575.049 286.842C574.867 287.363 574.775 287.978 574.775 288.688V289.088C574.775 289.687 574.886 290.224 575.107 290.699C575.329 291.174 575.651 291.552 576.074 291.832C576.497 292.105 577.002 292.242 577.588 292.242C578.154 292.242 578.656 292.132 579.092 291.91C579.535 291.689 579.915 291.37 580.234 290.953L581.504 292.223C581.172 292.724 580.671 293.18 580 293.59C579.336 293.993 578.483 294.195 577.441 294.195Z" fill="#1E1E1E"/>
<path d="M480.73 455H478.221V440.781H480.73V455ZM485.906 455H483.484V444.434H485.76L485.906 446.689V455ZM484.695 449.346C484.702 448.324 484.881 447.432 485.232 446.67C485.584 445.902 486.076 445.306 486.707 444.883C487.339 444.453 488.074 444.238 488.914 444.238C489.598 444.238 490.19 444.368 490.691 444.629C491.193 444.883 491.583 445.299 491.863 445.879C492.143 446.452 492.283 447.223 492.283 448.193V455H489.852V448.174C489.852 447.686 489.78 447.298 489.637 447.012C489.5 446.725 489.292 446.523 489.012 446.406C488.738 446.283 488.403 446.221 488.006 446.221C487.602 446.221 487.244 446.302 486.932 446.465C486.626 446.621 486.362 446.842 486.141 447.129C485.926 447.415 485.76 447.747 485.643 448.125C485.532 448.503 485.477 448.906 485.477 449.336L484.695 449.346ZM499.559 446.221H493.562V444.434H499.559V446.221ZM497.684 441.846V452.021C497.684 452.347 497.729 452.594 497.82 452.764C497.911 452.926 498.042 453.037 498.211 453.096C498.38 453.154 498.576 453.184 498.797 453.184C498.96 453.184 499.116 453.174 499.266 453.154C499.415 453.135 499.536 453.115 499.627 453.096V454.961C499.432 455.026 499.204 455.081 498.943 455.127C498.689 455.173 498.39 455.195 498.045 455.195C497.505 455.195 497.023 455.098 496.6 454.902C496.183 454.707 495.854 454.391 495.613 453.955C495.379 453.512 495.262 452.926 495.262 452.197V441.846H497.684ZM506.023 455.195C504.975 455.195 504.07 454.971 503.309 454.521C502.547 454.066 501.961 453.454 501.551 452.686C501.141 451.911 500.936 451.045 500.936 450.088V449.688C500.936 448.587 501.144 447.63 501.561 446.816C501.977 445.996 502.547 445.361 503.27 444.912C503.999 444.463 504.822 444.238 505.74 444.238C506.756 444.238 507.599 444.46 508.27 444.902C508.94 445.339 509.441 445.947 509.773 446.729C510.105 447.503 510.271 448.402 510.271 449.424V450.469H502.098V448.721H507.879V448.535C507.866 448.125 507.788 447.741 507.645 447.383C507.501 447.025 507.273 446.735 506.961 446.514C506.655 446.292 506.245 446.182 505.73 446.182C505.216 446.182 504.783 446.328 504.432 446.621C504.08 446.908 503.813 447.314 503.631 447.842C503.449 448.363 503.357 448.978 503.357 449.688V450.088C503.357 450.687 503.468 451.224 503.689 451.699C503.911 452.174 504.233 452.552 504.656 452.832C505.079 453.105 505.584 453.242 506.17 453.242C506.736 453.242 507.238 453.132 507.674 452.91C508.117 452.689 508.497 452.37 508.816 451.953L510.086 453.223C509.754 453.724 509.253 454.18 508.582 454.59C507.918 454.993 507.065 455.195 506.023 455.195ZM521.043 444.434V454.697C521.043 455.648 520.838 456.455 520.428 457.119C520.018 457.79 519.448 458.298 518.719 458.643C517.996 458.988 517.156 459.16 516.199 459.16C515.796 459.16 515.346 459.102 514.852 458.984C514.363 458.874 513.888 458.691 513.426 458.438C512.964 458.184 512.576 457.852 512.264 457.441L513.396 455.977C513.774 456.413 514.188 456.735 514.637 456.943C515.092 457.158 515.571 457.266 516.072 457.266C516.86 457.266 517.479 457.048 517.928 456.611C518.383 456.175 518.611 455.55 518.611 454.736V446.836L518.836 444.434H521.043ZM511.668 449.629C511.668 448.561 511.837 447.624 512.176 446.816C512.521 446.003 513.009 445.371 513.641 444.922C514.279 444.466 515.034 444.238 515.906 444.238C516.596 444.238 517.186 444.365 517.674 444.619C518.162 444.867 518.566 445.225 518.885 445.693C519.21 446.156 519.464 446.709 519.646 447.354C519.835 447.992 519.975 448.698 520.066 449.473V450.039C519.949 451.042 519.731 451.93 519.412 452.705C519.093 453.48 518.644 454.089 518.064 454.531C517.492 454.974 516.766 455.195 515.887 455.195C515.027 455.195 514.282 454.964 513.65 454.502C513.019 454.033 512.531 453.395 512.186 452.588C511.84 451.781 511.668 450.863 511.668 449.834V449.629ZM514.09 449.834C514.09 450.459 514.174 451.029 514.344 451.543C514.513 452.051 514.773 452.458 515.125 452.764C515.483 453.063 515.942 453.213 516.502 453.213C517.049 453.213 517.495 453.099 517.84 452.871C518.185 452.637 518.452 452.321 518.641 451.924C518.836 451.527 518.969 451.081 519.041 450.586V448.936C519.002 448.545 518.924 448.184 518.807 447.852C518.696 447.52 518.536 447.233 518.328 446.992C518.126 446.751 517.876 446.562 517.576 446.426C517.277 446.289 516.925 446.221 516.521 446.221C515.962 446.221 515.503 446.374 515.145 446.68C514.786 446.979 514.52 447.389 514.344 447.91C514.174 448.424 514.09 448.997 514.09 449.629V449.834ZM525.857 455H523.436V444.434H525.74L525.857 446.504V455ZM529.041 446.66C528.891 446.634 528.732 446.615 528.562 446.602C528.4 446.589 528.237 446.582 528.074 446.582C527.54 446.582 527.094 446.68 526.736 446.875C526.385 447.064 526.118 447.337 525.936 447.695C525.753 448.047 525.646 448.464 525.613 448.945L525.057 448.955C525.057 448.063 525.174 447.262 525.408 446.553C525.643 445.843 525.994 445.28 526.463 444.863C526.932 444.447 527.518 444.238 528.221 444.238C528.357 444.238 528.51 444.251 528.68 444.277C528.849 444.303 528.976 444.333 529.061 444.365L529.041 446.66ZM536.277 447.861C536.277 447.314 536.124 446.878 535.818 446.553C535.519 446.227 535.063 446.064 534.451 446.064C534.087 446.064 533.768 446.13 533.494 446.26C533.221 446.383 533.009 446.553 532.859 446.768C532.71 446.982 532.635 447.227 532.635 447.5H530.213C530.213 446.934 530.392 446.403 530.75 445.908C531.108 445.407 531.613 445.003 532.264 444.697C532.921 444.391 533.696 444.238 534.588 444.238C535.382 444.238 536.089 444.372 536.707 444.639C537.326 444.906 537.811 445.309 538.162 445.85C538.52 446.39 538.699 447.067 538.699 447.881V452.539C538.699 453.034 538.735 453.47 538.807 453.848C538.878 454.225 538.979 454.554 539.109 454.834V455H536.629C536.518 454.746 536.43 454.417 536.365 454.014C536.307 453.61 536.277 453.216 536.277 452.832V447.861ZM536.648 450.059H534.988C534.129 450.059 533.481 450.218 533.045 450.537C532.615 450.85 532.4 451.276 532.4 451.816C532.4 452.233 532.544 452.581 532.83 452.861C533.117 453.135 533.52 453.271 534.041 453.271C534.516 453.271 534.93 453.177 535.281 452.988C535.639 452.793 535.919 452.555 536.121 452.275C536.323 451.989 536.427 451.722 536.434 451.475L537.205 452.559C537.127 452.826 536.993 453.112 536.805 453.418C536.622 453.717 536.378 454.004 536.072 454.277C535.773 454.544 535.415 454.766 534.998 454.941C534.588 455.111 534.109 455.195 533.562 455.195C532.872 455.195 532.257 455.059 531.717 454.785C531.176 454.512 530.75 454.137 530.438 453.662C530.132 453.18 529.979 452.64 529.979 452.041C529.979 450.921 530.398 450.062 531.238 449.463C532.078 448.864 533.27 448.564 534.812 448.564H536.629L536.648 450.059ZM546.043 446.221H540.047V444.434H546.043V446.221ZM544.168 441.846V452.021C544.168 452.347 544.214 452.594 544.305 452.764C544.396 452.926 544.526 453.037 544.695 453.096C544.865 453.154 545.06 453.184 545.281 453.184C545.444 453.184 545.6 453.174 545.75 453.154C545.9 453.135 546.02 453.115 546.111 453.096V454.961C545.916 455.026 545.688 455.081 545.428 455.127C545.174 455.173 544.874 455.195 544.529 455.195C543.989 455.195 543.507 455.098 543.084 454.902C542.667 454.707 542.339 454.391 542.098 453.955C541.863 453.512 541.746 452.926 541.746 452.197V441.846H544.168ZM552.508 455.195C551.46 455.195 550.555 454.971 549.793 454.521C549.031 454.066 548.445 453.454 548.035 452.686C547.625 451.911 547.42 451.045 547.42 450.088V449.688C547.42 448.587 547.628 447.63 548.045 446.816C548.462 445.996 549.031 445.361 549.754 444.912C550.483 444.463 551.307 444.238 552.225 444.238C553.24 444.238 554.083 444.46 554.754 444.902C555.424 445.339 555.926 445.947 556.258 446.729C556.59 447.503 556.756 448.402 556.756 449.424V450.469H548.582V448.721H554.363V448.535C554.35 448.125 554.272 447.741 554.129 447.383C553.986 447.025 553.758 446.735 553.445 446.514C553.139 446.292 552.729 446.182 552.215 446.182C551.701 446.182 551.268 446.328 550.916 446.621C550.564 446.908 550.298 447.314 550.115 447.842C549.933 448.363 549.842 448.978 549.842 449.688V450.088C549.842 450.687 549.952 451.224 550.174 451.699C550.395 452.174 550.717 452.552 551.141 452.832C551.564 453.105 552.068 453.242 552.654 453.242C553.221 453.242 553.722 453.132 554.158 452.91C554.601 452.689 554.982 452.37 555.301 451.953L556.57 453.223C556.238 453.724 555.737 454.18 555.066 454.59C554.402 454.993 553.549 455.195 552.508 455.195Z" fill="#1E1E1E"/>
<path d="M155.984 521L156.004 518.979H159.012C159.884 518.979 160.613 518.79 161.199 518.412C161.785 518.035 162.228 517.494 162.527 516.791C162.827 516.081 162.977 515.235 162.977 514.252V513.51C162.977 512.501 162.827 511.648 162.527 510.951C162.234 510.255 161.798 509.724 161.219 509.359C160.639 508.995 159.933 508.812 159.1 508.812H155.926V506.781H159.1C160.369 506.781 161.482 507.061 162.439 507.621C163.403 508.181 164.155 508.965 164.695 509.975C165.236 510.984 165.506 512.169 165.506 513.529V514.252C165.506 515.619 165.236 516.807 164.695 517.816C164.155 518.826 163.396 519.61 162.42 520.17C161.45 520.723 160.314 521 159.012 521H155.984ZM157.391 521H154.871V506.781H157.391V521ZM173.641 513.861C173.641 513.314 173.488 512.878 173.182 512.553C172.882 512.227 172.426 512.064 171.814 512.064C171.45 512.064 171.131 512.13 170.857 512.26C170.584 512.383 170.372 512.553 170.223 512.768C170.073 512.982 169.998 513.227 169.998 513.5H167.576C167.576 512.934 167.755 512.403 168.113 511.908C168.471 511.407 168.976 511.003 169.627 510.697C170.285 510.391 171.059 510.238 171.951 510.238C172.745 510.238 173.452 510.372 174.07 510.639C174.689 510.906 175.174 511.309 175.525 511.85C175.883 512.39 176.062 513.067 176.062 513.881V518.539C176.062 519.034 176.098 519.47 176.17 519.848C176.242 520.225 176.342 520.554 176.473 520.834V521H173.992C173.882 520.746 173.794 520.417 173.729 520.014C173.67 519.61 173.641 519.216 173.641 518.832V513.861ZM174.012 516.059H172.352C171.492 516.059 170.844 516.218 170.408 516.537C169.979 516.85 169.764 517.276 169.764 517.816C169.764 518.233 169.907 518.581 170.193 518.861C170.48 519.135 170.883 519.271 171.404 519.271C171.88 519.271 172.293 519.177 172.645 518.988C173.003 518.793 173.283 518.555 173.484 518.275C173.686 517.989 173.79 517.722 173.797 517.475L174.568 518.559C174.49 518.826 174.357 519.112 174.168 519.418C173.986 519.717 173.742 520.004 173.436 520.277C173.136 520.544 172.778 520.766 172.361 520.941C171.951 521.111 171.473 521.195 170.926 521.195C170.236 521.195 169.62 521.059 169.08 520.785C168.54 520.512 168.113 520.137 167.801 519.662C167.495 519.18 167.342 518.64 167.342 518.041C167.342 516.921 167.762 516.062 168.602 515.463C169.441 514.864 170.633 514.564 172.176 514.564H173.992L174.012 516.059ZM184.412 518.119C184.412 517.898 184.354 517.696 184.236 517.514C184.126 517.331 183.908 517.162 183.582 517.006C183.257 516.85 182.778 516.706 182.146 516.576C181.398 516.42 180.737 516.212 180.164 515.951C179.598 515.691 179.155 515.355 178.836 514.945C178.523 514.535 178.367 514.034 178.367 513.441C178.367 512.868 178.53 512.341 178.855 511.859C179.188 511.371 179.66 510.98 180.271 510.688C180.89 510.388 181.619 510.238 182.459 510.238C183.344 510.238 184.106 510.388 184.744 510.688C185.382 510.98 185.87 511.381 186.209 511.889C186.554 512.39 186.727 512.96 186.727 513.598H184.305C184.305 513.181 184.148 512.816 183.836 512.504C183.53 512.185 183.068 512.025 182.449 512.025C182.065 512.025 181.743 512.087 181.482 512.211C181.229 512.335 181.036 512.494 180.906 512.689C180.783 512.885 180.721 513.1 180.721 513.334C180.721 513.562 180.783 513.76 180.906 513.93C181.036 514.099 181.255 514.249 181.561 514.379C181.873 514.509 182.309 514.633 182.869 514.75C183.676 514.919 184.373 515.134 184.959 515.395C185.545 515.648 185.994 515.987 186.307 516.41C186.626 516.827 186.785 517.357 186.785 518.002C186.785 518.62 186.606 519.171 186.248 519.652C185.896 520.134 185.398 520.512 184.754 520.785C184.116 521.059 183.361 521.195 182.488 521.195C181.518 521.195 180.701 521.023 180.037 520.678C179.373 520.333 178.868 519.893 178.523 519.359C178.185 518.819 178.016 518.259 178.016 517.68H180.35C180.376 518.096 180.493 518.432 180.701 518.686C180.916 518.939 181.183 519.125 181.502 519.242C181.827 519.353 182.166 519.408 182.518 519.408C182.934 519.408 183.279 519.353 183.553 519.242C183.833 519.132 184.044 518.982 184.188 518.793C184.337 518.598 184.412 518.373 184.412 518.119ZM191.209 521H188.787V506H191.209V521ZM190.008 515.346C190.014 514.363 190.187 513.487 190.525 512.719C190.87 511.951 191.352 511.345 191.971 510.902C192.589 510.46 193.312 510.238 194.139 510.238C194.835 510.238 195.441 510.372 195.955 510.639C196.476 510.899 196.88 511.322 197.166 511.908C197.452 512.488 197.596 513.262 197.596 514.232V521H195.164V514.213C195.164 513.718 195.092 513.324 194.949 513.031C194.806 512.738 194.594 512.53 194.314 512.406C194.041 512.283 193.706 512.221 193.309 512.221C192.892 512.221 192.527 512.302 192.215 512.465C191.902 512.621 191.639 512.842 191.424 513.129C191.209 513.415 191.049 513.747 190.945 514.125C190.841 514.503 190.789 514.906 190.789 515.336L190.008 515.346ZM202.381 506V518.715L202.146 521H199.959V506H202.381ZM209.256 515.824C209.256 516.866 209.1 517.79 208.787 518.598C208.481 519.405 208.022 520.04 207.41 520.502C206.805 520.964 206.049 521.195 205.145 521.195C204.266 521.195 203.536 520.974 202.957 520.531C202.384 520.089 201.938 519.48 201.619 518.705C201.307 517.924 201.092 517.025 200.975 516.01V515.434C201.092 514.411 201.307 513.513 201.619 512.738C201.938 511.957 202.384 511.345 202.957 510.902C203.53 510.46 204.253 510.238 205.125 510.238C206.036 510.238 206.798 510.466 207.41 510.922C208.022 511.378 208.481 512.009 208.787 512.816C209.1 513.624 209.256 514.558 209.256 515.619V515.824ZM206.834 515.619C206.834 515.001 206.762 514.434 206.619 513.92C206.482 513.406 206.245 512.995 205.906 512.689C205.574 512.377 205.112 512.221 204.52 512.221C204.109 512.221 203.758 512.289 203.465 512.426C203.172 512.562 202.924 512.751 202.723 512.992C202.527 513.233 202.374 513.516 202.264 513.842C202.153 514.167 202.078 514.519 202.039 514.896V516.557C202.098 517.045 202.218 517.491 202.4 517.895C202.583 518.298 202.85 518.62 203.201 518.861C203.553 519.096 203.999 519.213 204.539 519.213C205.118 519.213 205.574 519.063 205.906 518.764C206.238 518.464 206.476 518.061 206.619 517.553C206.762 517.038 206.834 516.462 206.834 515.824V515.619ZM210.76 515.619C210.76 514.59 210.955 513.673 211.346 512.865C211.736 512.058 212.296 511.42 213.025 510.951C213.761 510.476 214.643 510.238 215.672 510.238C216.714 510.238 217.602 510.476 218.338 510.951C219.074 511.42 219.633 512.058 220.018 512.865C220.408 513.673 220.604 514.59 220.604 515.619V515.824C220.604 516.846 220.408 517.764 220.018 518.578C219.633 519.385 219.074 520.023 218.338 520.492C217.609 520.961 216.727 521.195 215.691 521.195C214.656 521.195 213.771 520.961 213.035 520.492C212.299 520.023 211.736 519.385 211.346 518.578C210.955 517.764 210.76 516.846 210.76 515.824V515.619ZM213.182 515.824C213.182 516.449 213.27 517.022 213.445 517.543C213.621 518.057 213.891 518.471 214.256 518.783C214.627 519.096 215.105 519.252 215.691 519.252C216.271 519.252 216.743 519.096 217.107 518.783C217.479 518.471 217.749 518.057 217.918 517.543C218.094 517.022 218.182 516.449 218.182 515.824V515.619C218.182 515.001 218.094 514.431 217.918 513.91C217.749 513.389 217.479 512.973 217.107 512.66C216.736 512.341 216.258 512.182 215.672 512.182C215.092 512.182 214.617 512.341 214.246 512.66C213.882 512.973 213.611 513.389 213.436 513.91C213.266 514.431 213.182 515.001 213.182 515.619V515.824ZM228.504 513.861C228.504 513.314 228.351 512.878 228.045 512.553C227.745 512.227 227.29 512.064 226.678 512.064C226.313 512.064 225.994 512.13 225.721 512.26C225.447 512.383 225.236 512.553 225.086 512.768C224.936 512.982 224.861 513.227 224.861 513.5H222.439C222.439 512.934 222.618 512.403 222.977 511.908C223.335 511.407 223.839 511.003 224.49 510.697C225.148 510.391 225.923 510.238 226.814 510.238C227.609 510.238 228.315 510.372 228.934 510.639C229.552 510.906 230.037 511.309 230.389 511.85C230.747 512.39 230.926 513.067 230.926 513.881V518.539C230.926 519.034 230.962 519.47 231.033 519.848C231.105 520.225 231.206 520.554 231.336 520.834V521H228.855C228.745 520.746 228.657 520.417 228.592 520.014C228.533 519.61 228.504 519.216 228.504 518.832V513.861ZM228.875 516.059H227.215C226.355 516.059 225.708 516.218 225.271 516.537C224.842 516.85 224.627 517.276 224.627 517.816C224.627 518.233 224.77 518.581 225.057 518.861C225.343 519.135 225.747 519.271 226.268 519.271C226.743 519.271 227.156 519.177 227.508 518.988C227.866 518.793 228.146 518.555 228.348 518.275C228.549 517.989 228.654 517.722 228.66 517.475L229.432 518.559C229.354 518.826 229.22 519.112 229.031 519.418C228.849 519.717 228.605 520.004 228.299 520.277C227.999 520.544 227.641 520.766 227.225 520.941C226.814 521.111 226.336 521.195 225.789 521.195C225.099 521.195 224.484 521.059 223.943 520.785C223.403 520.512 222.977 520.137 222.664 519.662C222.358 519.18 222.205 518.64 222.205 518.041C222.205 516.921 222.625 516.062 223.465 515.463C224.305 514.864 225.496 514.564 227.039 514.564H228.855L228.875 516.059ZM235.799 521H233.377V510.434H235.682L235.799 512.504V521ZM238.982 512.66C238.833 512.634 238.673 512.615 238.504 512.602C238.341 512.589 238.178 512.582 238.016 512.582C237.482 512.582 237.036 512.68 236.678 512.875C236.326 513.064 236.059 513.337 235.877 513.695C235.695 514.047 235.587 514.464 235.555 514.945L234.998 514.955C234.998 514.063 235.115 513.262 235.35 512.553C235.584 511.843 235.936 511.28 236.404 510.863C236.873 510.447 237.459 510.238 238.162 510.238C238.299 510.238 238.452 510.251 238.621 510.277C238.79 510.303 238.917 510.333 239.002 510.365L238.982 512.66ZM246.883 506H249.305V521H247.107L246.883 518.783V506ZM240.027 515.629C240.027 514.561 240.193 513.624 240.525 512.816C240.864 512.003 241.342 511.371 241.961 510.922C242.579 510.466 243.322 510.238 244.188 510.238C245.04 510.238 245.753 510.46 246.326 510.902C246.899 511.345 247.348 511.96 247.674 512.748C248.006 513.529 248.227 514.438 248.338 515.473V516.039C248.227 517.042 248.009 517.93 247.684 518.705C247.358 519.48 246.906 520.089 246.326 520.531C245.753 520.974 245.034 521.195 244.168 521.195C243.315 521.195 242.579 520.964 241.961 520.502C241.342 520.033 240.864 519.395 240.525 518.588C240.193 517.781 240.027 516.863 240.027 515.834V515.629ZM242.449 515.834C242.449 516.459 242.527 517.029 242.684 517.543C242.84 518.051 243.087 518.458 243.426 518.764C243.771 519.063 244.223 519.213 244.783 519.213C245.311 519.213 245.743 519.099 246.082 518.871C246.427 518.637 246.694 518.321 246.883 517.924C247.078 517.527 247.212 517.081 247.283 516.586V514.936C247.238 514.545 247.156 514.184 247.039 513.852C246.922 513.52 246.762 513.233 246.561 512.992C246.365 512.751 246.121 512.562 245.828 512.426C245.535 512.289 245.193 512.221 244.803 512.221C244.243 512.221 243.787 512.374 243.436 512.68C243.09 512.979 242.84 513.389 242.684 513.91C242.527 514.424 242.449 514.997 242.449 515.629V515.834Z" fill="#1E1E1E"/>
<path d="M282.412 439H274.902V436.979H282.412V439ZM275.605 439H273.086V424.781H275.605V439ZM281.426 432.672H274.902V430.68H281.426V432.672ZM282.363 426.812H274.902V424.781H282.363V426.812ZM289.443 424.781C290.531 424.781 291.458 424.944 292.227 425.27C292.995 425.595 293.581 426.077 293.984 426.715C294.395 427.353 294.6 428.137 294.6 429.068C294.6 429.785 294.469 430.413 294.209 430.953C293.949 431.493 293.577 431.949 293.096 432.32C292.62 432.685 292.057 432.968 291.406 433.17L290.645 433.561H286.143L286.123 431.539H289.463C290.042 431.539 290.524 431.438 290.908 431.236C291.299 431.035 291.589 430.758 291.777 430.406C291.973 430.055 292.07 429.654 292.07 429.205C292.07 428.476 291.859 427.896 291.436 427.467C291.019 427.031 290.355 426.812 289.443 426.812H286.914V439H284.395V424.781H289.443ZM289.15 432.623L291.797 432.613L295.166 438.873V439H292.471L289.15 432.623ZM298.73 433.756V431.725H302.402C303.04 431.725 303.551 431.624 303.936 431.422C304.326 431.22 304.613 430.94 304.795 430.582C304.977 430.224 305.068 429.814 305.068 429.352C305.068 428.909 304.977 428.495 304.795 428.111C304.613 427.727 304.326 427.415 303.936 427.174C303.551 426.933 303.04 426.812 302.402 426.812H299.492V439H296.973V424.781H302.402C303.509 424.781 304.45 424.977 305.225 425.367C305.999 425.758 306.589 426.295 306.992 426.979C307.402 427.662 307.607 428.447 307.607 429.332C307.607 430.25 307.402 431.041 306.992 431.705C306.589 432.363 305.999 432.87 305.225 433.229C304.45 433.58 303.509 433.756 302.402 433.756H298.73Z" fill="#1E1E1E"/>
<path d="M209.469 251H205.918L212.305 233.938H214.555L214.273 236.762L209.469 251ZM213.418 236.762L213.113 233.938H215.387L221.785 251H218.246L213.418 236.762ZM218.082 247.355H208.906V244.637H218.082V247.355ZM234.477 248.645C234.906 248.645 235.289 248.562 235.625 248.398C235.961 248.234 236.227 248.004 236.422 247.707C236.617 247.402 236.723 247.055 236.738 246.664H239.762C239.754 247.539 239.512 248.32 239.035 249.008C238.566 249.695 237.941 250.238 237.16 250.637C236.379 251.035 235.5 251.234 234.523 251.234C233.219 251.234 232.137 250.949 231.277 250.379C230.418 249.809 229.773 249.039 229.344 248.07C228.914 247.102 228.699 246.023 228.699 244.836V244.484C228.699 243.297 228.914 242.219 229.344 241.25C229.773 240.281 230.418 239.512 231.277 238.941C232.137 238.371 233.215 238.086 234.512 238.086C235.551 238.086 236.461 238.289 237.242 238.695C238.023 239.094 238.637 239.66 239.082 240.395C239.527 241.129 239.754 241.992 239.762 242.984H236.738C236.723 242.562 236.625 242.176 236.445 241.824C236.266 241.473 236.008 241.195 235.672 240.992C235.344 240.781 234.941 240.676 234.465 240.676C233.777 240.676 233.25 240.859 232.883 241.227C232.516 241.586 232.262 242.059 232.121 242.645C231.988 243.223 231.922 243.836 231.922 244.484V244.836C231.922 245.5 231.988 246.121 232.121 246.699C232.254 247.277 232.504 247.746 232.871 248.105C233.246 248.465 233.781 248.645 234.477 248.645ZM241.238 244.543C241.238 243.309 241.473 242.207 241.941 241.238C242.41 240.262 243.086 239.492 243.969 238.93C244.859 238.367 245.934 238.086 247.191 238.086C248.473 238.086 249.559 238.367 250.449 238.93C251.34 239.492 252.016 240.262 252.477 241.238C252.945 242.207 253.18 243.309 253.18 244.543V244.789C253.18 246.016 252.945 247.117 252.477 248.094C252.016 249.07 251.34 249.84 250.449 250.402C249.566 250.957 248.488 251.234 247.215 251.234C245.949 251.234 244.871 250.957 243.98 250.402C243.09 249.84 242.41 249.07 241.941 248.094C241.473 247.117 241.238 246.016 241.238 244.789V244.543ZM244.473 244.789C244.473 245.492 244.562 246.137 244.742 246.723C244.93 247.309 245.223 247.777 245.621 248.129C246.027 248.473 246.559 248.645 247.215 248.645C247.871 248.645 248.398 248.473 248.797 248.129C249.203 247.777 249.496 247.309 249.676 246.723C249.863 246.137 249.957 245.492 249.957 244.789V244.543C249.957 243.848 249.863 243.207 249.676 242.621C249.496 242.035 249.203 241.566 248.797 241.215C248.398 240.855 247.863 240.676 247.191 240.676C246.543 240.676 246.016 240.855 245.609 241.215C245.211 241.566 244.922 242.035 244.742 242.621C244.562 243.207 244.473 243.848 244.473 244.543V244.789ZM258.594 251H255.359V238.32H258.395L258.594 240.934V251ZM257.129 244.25C257.129 243.062 257.316 242.008 257.691 241.086C258.066 240.156 258.625 239.426 259.367 238.895C260.117 238.355 261.043 238.086 262.145 238.086C263.285 238.086 264.219 238.434 264.945 239.129C265.672 239.816 266.035 240.953 266.035 242.539V251H262.801V242.902C262.801 242.332 262.719 241.887 262.555 241.566C262.391 241.246 262.156 241.023 261.852 240.898C261.555 240.773 261.195 240.711 260.773 240.711C260.305 240.711 259.902 240.801 259.566 240.98C259.23 241.152 258.953 241.398 258.734 241.719C258.516 242.039 258.355 242.414 258.254 242.844C258.16 243.266 258.113 243.727 258.113 244.227L257.129 244.25ZM264.465 243.969C264.465 242.875 264.648 241.887 265.016 241.004C265.383 240.113 265.934 239.406 266.668 238.883C267.402 238.352 268.305 238.086 269.375 238.086C270.219 238.086 270.945 238.242 271.555 238.555C272.172 238.867 272.645 239.375 272.973 240.078C273.309 240.781 273.477 241.715 273.477 242.879V251H270.242V242.867C270.242 242.289 270.16 241.844 269.996 241.531C269.832 241.219 269.598 241.004 269.293 240.887C268.996 240.77 268.641 240.711 268.227 240.711C267.82 240.711 267.461 240.789 267.148 240.945C266.844 241.094 266.59 241.309 266.387 241.59C266.184 241.863 266.027 242.188 265.918 242.562C265.816 242.93 265.766 243.332 265.766 243.77L264.465 243.969ZM279.406 255.875H276.184V238.32H279.16L279.406 240.758V255.875ZM287.492 244.766C287.492 246 287.301 247.105 286.918 248.082C286.543 249.051 285.988 249.82 285.254 250.391C284.527 250.953 283.633 251.234 282.57 251.234C281.523 251.234 280.656 250.965 279.969 250.426C279.289 249.879 278.758 249.137 278.375 248.199C278 247.262 277.734 246.207 277.578 245.035V244.438C277.727 243.195 277.992 242.098 278.375 241.145C278.758 240.191 279.289 239.445 279.969 238.906C280.648 238.359 281.508 238.086 282.547 238.086C283.617 238.086 284.52 238.355 285.254 238.895C285.988 239.426 286.543 240.176 286.918 241.145C287.301 242.113 287.492 243.238 287.492 244.52V244.766ZM284.27 244.52C284.27 243.801 284.184 243.156 284.012 242.586C283.84 242.008 283.562 241.551 283.18 241.215C282.805 240.879 282.309 240.711 281.691 240.711C281.223 240.711 280.824 240.785 280.496 240.934C280.168 241.082 279.895 241.297 279.676 241.578C279.457 241.852 279.289 242.184 279.172 242.574C279.062 242.965 278.988 243.402 278.949 243.887V245.598C279.012 246.168 279.141 246.684 279.336 247.145C279.531 247.605 279.82 247.973 280.203 248.246C280.586 248.512 281.09 248.645 281.715 248.645C282.332 248.645 282.828 248.469 283.203 248.117C283.578 247.766 283.848 247.297 284.012 246.711C284.184 246.125 284.27 245.477 284.27 244.766V244.52ZM293.117 251H289.883V233H293.117V251ZM301.766 251.234C300.477 251.234 299.363 250.961 298.426 250.414C297.496 249.859 296.781 249.121 296.281 248.199C295.789 247.27 295.543 246.234 295.543 245.094V244.637C295.543 243.34 295.785 242.199 296.27 241.215C296.762 240.23 297.449 239.465 298.332 238.918C299.215 238.363 300.238 238.086 301.402 238.086C302.629 238.086 303.648 238.348 304.461 238.871C305.281 239.395 305.898 240.125 306.312 241.062C306.734 241.992 306.945 243.078 306.945 244.32V245.691H296.984V243.453H303.77V243.195C303.754 242.734 303.664 242.312 303.5 241.93C303.336 241.547 303.082 241.242 302.738 241.016C302.395 240.789 301.945 240.676 301.391 240.676C300.789 240.676 300.293 240.848 299.902 241.191C299.52 241.527 299.234 241.992 299.047 242.586C298.859 243.172 298.766 243.855 298.766 244.637V245.094C298.766 245.781 298.891 246.391 299.141 246.922C299.391 247.453 299.758 247.871 300.242 248.176C300.727 248.48 301.301 248.633 301.965 248.633C302.605 248.633 303.188 248.512 303.711 248.27C304.242 248.027 304.695 247.66 305.07 247.168L306.688 248.914C306.289 249.5 305.68 250.035 304.859 250.52C304.047 250.996 303.016 251.234 301.766 251.234ZM315.066 240.688H307.73V238.32H315.066V240.688ZM312.875 235.203V247.238C312.875 247.598 312.926 247.875 313.027 248.07C313.129 248.266 313.277 248.398 313.473 248.469C313.668 248.539 313.906 248.574 314.188 248.574C314.391 248.574 314.578 248.566 314.75 248.551C314.922 248.527 315.062 248.504 315.172 248.48V250.93C314.906 251.023 314.609 251.098 314.281 251.152C313.961 251.207 313.594 251.234 313.18 251.234C312.477 251.234 311.859 251.113 311.328 250.871C310.797 250.621 310.383 250.227 310.086 249.688C309.797 249.141 309.652 248.426 309.652 247.543V235.203H312.875ZM322.812 251.234C321.523 251.234 320.41 250.961 319.473 250.414C318.543 249.859 317.828 249.121 317.328 248.199C316.836 247.27 316.59 246.234 316.59 245.094V244.637C316.59 243.34 316.832 242.199 317.316 241.215C317.809 240.23 318.496 239.465 319.379 238.918C320.262 238.363 321.285 238.086 322.449 238.086C323.676 238.086 324.695 238.348 325.508 238.871C326.328 239.395 326.945 240.125 327.359 241.062C327.781 241.992 327.992 243.078 327.992 244.32V245.691H318.031V243.453H324.816V243.195C324.801 242.734 324.711 242.312 324.547 241.93C324.383 241.547 324.129 241.242 323.785 241.016C323.441 240.789 322.992 240.676 322.438 240.676C321.836 240.676 321.34 240.848 320.949 241.191C320.566 241.527 320.281 241.992 320.094 242.586C319.906 243.172 319.812 243.855 319.812 244.637V245.094C319.812 245.781 319.938 246.391 320.188 246.922C320.438 247.453 320.805 247.871 321.289 248.176C321.773 248.48 322.348 248.633 323.012 248.633C323.652 248.633 324.234 248.512 324.758 248.27C325.289 248.027 325.742 247.66 326.117 247.168L327.734 248.914C327.336 249.5 326.727 250.035 325.906 250.52C325.094 250.996 324.062 251.234 322.812 251.234ZM350 251H346.648L339.57 239.492V251H336.219V233.938H339.57L346.672 245.457V233.938H350V251ZM367.121 242.867C367.121 244.602 366.816 246.094 366.207 247.344C365.605 248.594 364.766 249.555 363.688 250.227C362.609 250.898 361.355 251.234 359.926 251.234C358.512 251.234 357.258 250.898 356.164 250.227C355.078 249.555 354.227 248.594 353.609 247.344C353 246.094 352.695 244.602 352.695 242.867V242.082C352.695 240.348 353 238.855 353.609 237.605C354.219 236.355 355.066 235.395 356.152 234.723C357.238 234.043 358.488 233.703 359.902 233.703C361.332 233.703 362.586 234.043 363.664 234.723C364.75 235.395 365.598 236.355 366.207 237.605C366.816 238.855 367.121 240.348 367.121 242.082V242.867ZM363.734 242.059C363.734 240.84 363.582 239.816 363.277 238.988C362.98 238.16 362.547 237.535 361.977 237.113C361.406 236.684 360.715 236.469 359.902 236.469C359.098 236.469 358.41 236.684 357.84 237.113C357.27 237.535 356.832 238.16 356.527 238.988C356.23 239.816 356.082 240.84 356.082 242.059V242.867C356.082 244.078 356.234 245.102 356.539 245.938C356.844 246.773 357.281 247.406 357.852 247.836C358.43 248.266 359.121 248.48 359.926 248.48C360.738 248.48 361.43 248.266 362 247.836C362.57 247.406 363 246.773 363.289 245.938C363.586 245.102 363.734 244.078 363.734 242.867V242.059ZM208.672 283H205.32V265.938H208.672V283ZM213.922 268.645H200.129V265.938H213.922V268.645ZM229.426 274.867C229.426 276.602 229.121 278.094 228.512 279.344C227.91 280.594 227.07 281.555 225.992 282.227C224.914 282.898 223.66 283.234 222.23 283.234C220.816 283.234 219.562 282.898 218.469 282.227C217.383 281.555 216.531 280.594 215.914 279.344C215.305 278.094 215 276.602 215 274.867V274.082C215 272.348 215.305 270.855 215.914 269.605C216.523 268.355 217.371 267.395 218.457 266.723C219.543 266.043 220.793 265.703 222.207 265.703C223.637 265.703 224.891 266.043 225.969 266.723C227.055 267.395 227.902 268.355 228.512 269.605C229.121 270.855 229.426 272.348 229.426 274.082V274.867ZM226.039 274.059C226.039 272.84 225.887 271.816 225.582 270.988C225.285 270.16 224.852 269.535 224.281 269.113C223.711 268.684 223.02 268.469 222.207 268.469C221.402 268.469 220.715 268.684 220.145 269.113C219.574 269.535 219.137 270.16 218.832 270.988C218.535 271.816 218.387 272.84 218.387 274.059V274.867C218.387 276.078 218.539 277.102 218.844 277.938C219.148 278.773 219.586 279.406 220.156 279.836C220.734 280.266 221.426 280.48 222.23 280.48C223.043 280.48 223.734 280.266 224.305 279.836C224.875 279.406 225.305 278.773 225.594 277.938C225.891 277.102 226.039 276.078 226.039 274.867V274.059ZM244.883 265.938V277.234C244.883 278.547 244.598 279.648 244.027 280.539C243.465 281.43 242.695 282.102 241.719 282.555C240.742 283.008 239.637 283.234 238.402 283.234C237.145 283.234 236.023 283.008 235.039 282.555C234.062 282.102 233.293 281.43 232.73 280.539C232.176 279.648 231.898 278.547 231.898 277.234V265.938H235.25V277.234C235.25 278 235.375 278.625 235.625 279.109C235.883 279.594 236.246 279.953 236.715 280.188C237.184 280.422 237.746 280.539 238.402 280.539C239.059 280.539 239.617 280.422 240.078 280.188C240.547 279.953 240.906 279.594 241.156 279.109C241.406 278.625 241.531 278 241.531 277.234V265.938H244.883ZM261.148 277.352C261.07 278.492 260.758 279.508 260.211 280.398C259.664 281.281 258.898 281.977 257.914 282.484C256.93 282.984 255.738 283.234 254.34 283.234C252.902 283.234 251.66 282.902 250.613 282.238C249.566 281.574 248.758 280.633 248.188 279.414C247.625 278.188 247.344 276.742 247.344 275.078V273.871C247.344 272.199 247.633 270.754 248.211 269.535C248.797 268.316 249.617 267.371 250.672 266.699C251.727 266.027 252.973 265.691 254.41 265.691C255.816 265.691 257 265.949 257.961 266.465C258.922 266.98 259.668 267.691 260.199 268.598C260.738 269.496 261.059 270.523 261.16 271.68H257.82C257.727 270.641 257.43 269.84 256.93 269.277C256.43 268.715 255.59 268.434 254.41 268.434C253.59 268.434 252.906 268.637 252.359 269.043C251.82 269.441 251.414 270.043 251.141 270.848C250.875 271.645 250.742 272.645 250.742 273.848V275.078C250.742 276.242 250.863 277.227 251.105 278.031C251.348 278.836 251.73 279.449 252.254 279.871C252.785 280.293 253.48 280.504 254.34 280.504C255.113 280.504 255.742 280.387 256.227 280.152C256.711 279.91 257.078 279.555 257.328 279.086C257.586 278.617 257.746 278.039 257.809 277.352H261.148ZM274.883 275.605H266.012V272.898H274.883V275.605ZM266.926 283H263.562V265.938H266.926V283ZM277.355 283H274.016V265.938H277.355V283ZM295.414 278.547C295.414 278.125 295.324 277.762 295.145 277.457C294.973 277.152 294.641 276.867 294.148 276.602C293.656 276.336 292.938 276.059 291.992 275.77C291.203 275.52 290.465 275.238 289.777 274.926C289.09 274.613 288.484 274.25 287.961 273.836C287.445 273.414 287.039 272.926 286.742 272.371C286.453 271.816 286.309 271.176 286.309 270.449C286.309 269.504 286.574 268.676 287.105 267.965C287.637 267.254 288.367 266.699 289.297 266.301C290.234 265.902 291.312 265.703 292.531 265.703C293.805 265.703 294.906 265.934 295.836 266.395C296.773 266.848 297.496 267.469 298.004 268.258C298.512 269.047 298.766 269.945 298.766 270.953H295.414C295.414 270.445 295.309 270 295.098 269.617C294.887 269.227 294.562 268.922 294.125 268.703C293.695 268.484 293.148 268.375 292.484 268.375C291.852 268.375 291.324 268.469 290.902 268.656C290.48 268.836 290.168 269.086 289.965 269.406C289.762 269.719 289.66 270.07 289.66 270.461C289.66 270.852 289.789 271.195 290.047 271.492C290.312 271.789 290.699 272.062 291.207 272.312C291.723 272.555 292.359 272.789 293.117 273.016C294.375 273.391 295.422 273.828 296.258 274.328C297.094 274.828 297.723 275.422 298.145 276.109C298.566 276.789 298.777 277.594 298.777 278.523C298.777 279.5 298.523 280.344 298.016 281.055C297.508 281.758 296.793 282.297 295.871 282.672C294.949 283.047 293.863 283.234 292.613 283.234C291.777 283.234 290.953 283.125 290.141 282.906C289.336 282.68 288.602 282.34 287.938 281.887C287.281 281.426 286.758 280.848 286.367 280.152C285.977 279.457 285.781 278.633 285.781 277.68H289.145C289.145 278.211 289.227 278.66 289.391 279.027C289.562 279.395 289.805 279.695 290.117 279.93C290.43 280.156 290.797 280.324 291.219 280.434C291.641 280.535 292.105 280.586 292.613 280.586C293.254 280.586 293.777 280.5 294.184 280.328C294.598 280.148 294.906 279.906 295.109 279.602C295.312 279.289 295.414 278.938 295.414 278.547ZM300.465 276.543C300.465 275.309 300.699 274.207 301.168 273.238C301.637 272.262 302.312 271.492 303.195 270.93C304.086 270.367 305.16 270.086 306.418 270.086C307.699 270.086 308.785 270.367 309.676 270.93C310.566 271.492 311.242 272.262 311.703 273.238C312.172 274.207 312.406 275.309 312.406 276.543V276.789C312.406 278.016 312.172 279.117 311.703 280.094C311.242 281.07 310.566 281.84 309.676 282.402C308.793 282.957 307.715 283.234 306.441 283.234C305.176 283.234 304.098 282.957 303.207 282.402C302.316 281.84 301.637 281.07 301.168 280.094C300.699 279.117 300.465 278.016 300.465 276.789V276.543ZM303.699 276.789C303.699 277.492 303.789 278.137 303.969 278.723C304.156 279.309 304.449 279.777 304.848 280.129C305.254 280.473 305.785 280.645 306.441 280.645C307.098 280.645 307.625 280.473 308.023 280.129C308.43 279.777 308.723 279.309 308.902 278.723C309.09 278.137 309.184 277.492 309.184 276.789V276.543C309.184 275.848 309.09 275.207 308.902 274.621C308.723 274.035 308.43 273.566 308.023 273.215C307.625 272.855 307.09 272.676 306.418 272.676C305.77 272.676 305.242 272.855 304.836 273.215C304.438 273.566 304.148 274.035 303.969 274.621C303.789 275.207 303.699 275.848 303.699 276.543V276.789ZM318.008 283H314.773V265H318.008V283ZM328.414 270.32H331.637V283H328.602L328.414 279.977V270.32ZM329.809 277.316C329.809 278.449 329.637 279.461 329.293 280.352C328.957 281.242 328.434 281.945 327.723 282.461C327.02 282.977 326.121 283.234 325.027 283.234C323.777 283.234 322.762 282.871 321.98 282.145C321.207 281.41 320.82 280.203 320.82 278.523V270.32H324.043V278.547C324.043 279.055 324.125 279.461 324.289 279.766C324.453 280.062 324.676 280.277 324.957 280.41C325.238 280.543 325.555 280.609 325.906 280.609C326.641 280.609 327.219 280.469 327.641 280.188C328.062 279.898 328.363 279.508 328.543 279.016C328.723 278.516 328.812 277.957 328.812 277.34L329.809 277.316ZM340.402 272.688H333.066V270.32H340.402V272.688ZM338.211 267.203V279.238C338.211 279.598 338.262 279.875 338.363 280.07C338.465 280.266 338.613 280.398 338.809 280.469C339.004 280.539 339.242 280.574 339.523 280.574C339.727 280.574 339.914 280.566 340.086 280.551C340.258 280.527 340.398 280.504 340.508 280.48V282.93C340.242 283.023 339.945 283.098 339.617 283.152C339.297 283.207 338.93 283.234 338.516 283.234C337.812 283.234 337.195 283.113 336.664 282.871C336.133 282.621 335.719 282.227 335.422 281.688C335.133 281.141 334.988 280.426 334.988 279.543V267.203H338.211ZM345.805 283H342.57V270.32H345.805V283ZM342.371 267.027C342.371 266.543 342.531 266.141 342.852 265.82C343.18 265.5 343.621 265.34 344.176 265.34C344.738 265.34 345.184 265.5 345.512 265.82C345.84 266.141 346.004 266.543 346.004 267.027C346.004 267.504 345.84 267.902 345.512 268.223C345.184 268.543 344.738 268.703 344.176 268.703C343.621 268.703 343.18 268.543 342.852 268.223C342.531 267.902 342.371 267.504 342.371 267.027ZM348.16 276.543C348.16 275.309 348.395 274.207 348.863 273.238C349.332 272.262 350.008 271.492 350.891 270.93C351.781 270.367 352.855 270.086 354.113 270.086C355.395 270.086 356.48 270.367 357.371 270.93C358.262 271.492 358.938 272.262 359.398 273.238C359.867 274.207 360.102 275.309 360.102 276.543V276.789C360.102 278.016 359.867 279.117 359.398 280.094C358.938 281.07 358.262 281.84 357.371 282.402C356.488 282.957 355.41 283.234 354.137 283.234C352.871 283.234 351.793 282.957 350.902 282.402C350.012 281.84 349.332 281.07 348.863 280.094C348.395 279.117 348.16 278.016 348.16 276.789V276.543ZM351.395 276.789C351.395 277.492 351.484 278.137 351.664 278.723C351.852 279.309 352.145 279.777 352.543 280.129C352.949 280.473 353.48 280.645 354.137 280.645C354.793 280.645 355.32 280.473 355.719 280.129C356.125 279.777 356.418 279.309 356.598 278.723C356.785 278.137 356.879 277.492 356.879 276.789V276.543C356.879 275.848 356.785 275.207 356.598 274.621C356.418 274.035 356.125 273.566 355.719 273.215C355.32 272.855 354.785 272.676 354.113 272.676C353.465 272.676 352.938 272.855 352.531 273.215C352.133 273.566 351.844 274.035 351.664 274.621C351.484 275.207 351.395 275.848 351.395 276.543V276.789ZM365.445 283H362.234V270.32H365.258L365.445 273.027V283ZM364.004 276.25C364.004 274.992 364.211 273.902 364.625 272.98C365.047 272.059 365.633 271.348 366.383 270.848C367.141 270.34 368.02 270.086 369.02 270.086C369.832 270.086 370.535 270.242 371.129 270.555C371.73 270.867 372.199 271.375 372.535 272.078C372.871 272.773 373.039 273.711 373.039 274.891V283H369.805V274.879C369.805 274.324 369.723 273.891 369.559 273.578C369.402 273.258 369.168 273.035 368.855 272.91C368.551 272.777 368.172 272.711 367.719 272.711C367.266 272.711 366.867 272.801 366.523 272.98C366.18 273.152 365.891 273.398 365.656 273.719C365.422 274.039 365.242 274.414 365.117 274.844C365 275.266 364.941 275.727 364.941 276.227L364.004 276.25Z" fill="#1E1E1E"/>
<path d="M460.033 392.407C474.283 366.467 482.409 337.61 483.789 308.045C485.169 278.481 479.766 248.992 467.994 221.837C456.222 194.683 438.393 170.581 415.872 151.378C393.351 132.175 366.734 118.379 338.06 111.047C309.386 103.715 279.414 103.041 250.439 109.076C221.464 115.112 194.255 127.697 170.893 145.868C147.531 164.039 128.636 187.315 115.655 213.913C102.674 240.511 95.9509 269.727 96.0003 299.323" stroke="url(#paint0_linear_2922_1330)" stroke-width="4"/>
<path d="M377.792 417.143C362.277 429.066 344.566 437.816 325.67 442.895C306.773 447.973 287.061 449.279 267.66 446.739C248.258 444.2 229.547 437.863 212.595 428.092C195.642 418.321 180.78 405.307 168.857 389.792C156.934 374.277 148.184 356.566 143.105 337.669C138.027 318.773 136.721 299.061 139.261 279.66C141.8 260.258 148.137 241.547 157.908 224.595C167.679 207.642 180.693 192.78 196.208 180.857C211.723 168.934 229.434 160.183 248.331 155.105C267.227 150.027 286.939 148.721 306.34 151.261C325.742 153.8 344.453 160.137 361.405 169.908C378.358 179.679 393.22 192.693 405.143 208.208C417.066 223.723 425.817 241.434 430.895 260.331C435.973 279.227 437.279 298.939 434.739 318.34C432.2 337.742 425.863 356.453 416.092 373.405C406.321 390.358 393.307 405.22 377.792 417.143L377.792 417.143Z" stroke="url(#paint1_linear_2922_1330)" stroke-opacity="0.6" stroke-width="4"/>
<path d="M229.042 483.173C272.005 497.393 318.588 496.146 360.729 479.646C402.87 463.147 437.916 432.434 459.803 392.823" stroke="#868686" stroke-width="4" stroke-dasharray="8 8"/>
<circle cx="96" cy="299" r="17" fill="white"/>
<circle cx="96" cy="299" r="16" stroke="#9F77EB" stroke-opacity="0.3" stroke-width="2"/>
<circle cx="150" cy="164" r="6" fill="#DED0F8"/>
<circle cx="413" cy="150" r="6" fill="#BFA4F2"/>
<circle cx="478" cy="251" r="6" fill="#B596EF"/>
<circle cx="462" cy="389" r="6" fill="#9F77EB"/>
<circle cx="290" cy="494" r="8" fill="#868686"/>
<circle cx="287" cy="105" r="6" fill="#CFBCF5"/>
<circle cx="30" cy="273" r="30" fill="#9F77EB" fill-opacity="0.12"/>
<circle cx="94" cy="96" r="30" fill="#9F77EB" fill-opacity="0.12"/>
<circle cx="275" cy="30" r="30" fill="#9F77EB" fill-opacity="0.12"/>
<circle cx="452" cy="98" r="30" fill="#9F77EB" fill-opacity="0.12"/>
<circle cx="533" cy="242" r="30" fill="#9F77EB" fill-opacity="0.12"/>
<circle cx="507" cy="403" r="30" fill="#9F77EB" fill-opacity="0.12"/>
<circle cx="189" cy="469" r="30" fill="#868686" fill-opacity="0.12"/>
<circle cx="277" cy="387" r="30" fill="#868686" fill-opacity="0.12"/>
<path d="M290 451V485" stroke="#868686" stroke-width="4" stroke-dasharray="8 8"/>
<path d="M301 32.75H285.25C283.317 32.75 281.75 34.317 281.75 36.25V52C281.75 53.933 283.317 55.5 285.25 55.5H301C302.933 55.5 304.5 53.933 304.5 52V36.25C304.5 34.317 302.933 32.75 301 32.75Z" stroke="#9F77EB" stroke-width="3" stroke-linecap="round" stroke-linejoin="round"/>
<path d="M274.75 43.25H273C272.072 43.25 271.182 42.8813 270.525 42.2249C269.869 41.5685 269.5 40.6783 269.5 39.75V24C269.5 23.0717 269.869 22.1815 270.525 21.5251C271.182 20.8687 272.072 20.5 273 20.5H288.75C289.678 20.5 290.568 20.8687 291.225 21.5251C291.881 22.1815 292.25 23.0717 292.25 24V25.75" stroke="#9F77EB" stroke-width="3" stroke-linecap="round" stroke-linejoin="round"/>
<path d="M29 267H57C58.925 267 60.5 268.575 60.5 270.5V291.5C60.5 293.425 58.925 295 57 295H29C27.075 295 25.5 293.425 25.5 291.5V270.5C25.5 268.575 27.075 267 29 267Z" stroke="#9F77EB" stroke-width="3" stroke-linecap="round" stroke-linejoin="round"/>
<path d="M60.5 270.5L43 282.75L25.5 270.5" stroke="#9F77EB" stroke-width="3" stroke-linecap="round" stroke-linejoin="round"/>
<path d="M102.25 118.25C109.982 118.25 116.25 111.982 116.25 104.25C116.25 96.518 109.982 90.25 102.25 90.25C94.518 90.25 88.25 96.518 88.25 104.25C88.25 111.982 94.518 118.25 102.25 118.25Z" stroke="#9F77EB" stroke-width="3" stroke-linecap="round" stroke-linejoin="round"/>
<path d="M119.75 121.749L112.138 114.137" stroke="#9F77EB" stroke-width="3" stroke-linecap="round" stroke-linejoin="round"/>
<path d="M458 90.25H452.75C451.822 90.25 450.932 90.6187 450.275 91.2751C449.619 91.9315 449.25 92.8217 449.25 93.75V99M480.75 99V93.75C480.75 92.8217 480.381 91.9315 479.725 91.2751C479.068 90.6187 478.178 90.25 477.25 90.25H472M472 121.75H477.25C478.178 121.75 479.068 121.381 479.725 120.725C480.381 120.068 480.75 119.178 480.75 118.25V113M449.25 113V118.25C449.25 119.178 449.619 120.068 450.275 120.725C450.932 121.381 451.822 121.75 452.75 121.75H458" stroke="#9F77EB" stroke-width="3" stroke-linecap="round" stroke-linejoin="round"/>
<path d="M562.5 252.39V254C562.498 257.774 561.276 261.446 559.016 264.468C556.757 267.491 553.581 269.702 549.962 270.772C546.343 271.842 542.475 271.714 538.935 270.406C535.395 269.098 532.373 266.681 530.319 263.515C528.265 260.349 527.29 256.604 527.538 252.839C527.786 249.073 529.245 245.489 531.697 242.62C534.149 239.751 537.462 237.752 541.143 236.921C544.824 236.089 548.675 236.469 552.123 238.005" stroke="#9F77EB" stroke-width="3" stroke-linecap="round" stroke-linejoin="round"/>
<path d="M562.5 240L545 257.518L539.75 252.268" stroke="#9F77EB" stroke-width="3" stroke-linecap="round" stroke-linejoin="round"/>
<g clip-path="url(#clip0_2922_1330)">
<path d="M517 420.25C519.899 420.25 522.25 417.899 522.25 415C522.25 412.101 519.899 409.75 517 409.75C514.101 409.75 511.75 412.101 511.75 415C511.75 417.899 514.101 420.25 517 420.25Z" stroke="#9F77EB" stroke-width="3" stroke-linecap="round" stroke-linejoin="round"/>
<path d="M529.95 420.25C529.717 420.778 529.648 421.363 529.75 421.931C529.853 422.499 530.124 423.023 530.527 423.435L530.633 423.54C530.958 423.865 531.216 424.251 531.392 424.676C531.568 425.101 531.659 425.556 531.659 426.016C531.659 426.476 531.568 426.932 531.392 427.357C531.216 427.781 530.958 428.167 530.633 428.492C530.307 428.818 529.921 429.076 529.497 429.252C529.072 429.428 528.616 429.519 528.156 429.519C527.696 429.519 527.241 429.428 526.816 429.252C526.391 429.076 526.005 428.818 525.68 428.492L525.575 428.387C525.163 427.984 524.639 427.713 524.071 427.61C523.503 427.508 522.918 427.577 522.39 427.81C521.872 428.032 521.431 428.4 521.12 428.87C520.809 429.339 520.642 429.889 520.64 430.452V430.75C520.64 431.678 520.271 432.568 519.615 433.225C518.958 433.881 518.068 434.25 517.14 434.25C516.212 434.25 515.322 433.881 514.665 433.225C514.009 432.568 513.64 431.678 513.64 430.75V430.592C513.626 430.013 513.439 429.451 513.102 428.98C512.765 428.509 512.294 428.15 511.75 427.95C511.222 427.717 510.637 427.648 510.069 427.75C509.501 427.853 508.977 428.124 508.565 428.527L508.46 428.633C508.135 428.958 507.749 429.216 507.324 429.392C506.899 429.568 506.444 429.659 505.984 429.659C505.524 429.659 505.068 429.568 504.643 429.392C504.219 429.216 503.833 428.958 503.507 428.633C503.182 428.307 502.924 427.921 502.748 427.497C502.572 427.072 502.481 426.616 502.481 426.156C502.481 425.696 502.572 425.241 502.748 424.816C502.924 424.391 503.182 424.005 503.507 423.68L503.612 423.575C504.016 423.163 504.287 422.639 504.39 422.071C504.492 421.503 504.423 420.918 504.19 420.39C503.968 419.872 503.6 419.431 503.13 419.12C502.661 418.809 502.111 418.642 501.548 418.64H501.25C500.322 418.64 499.432 418.271 498.775 417.615C498.119 416.958 497.75 416.068 497.75 415.14C497.75 414.212 498.119 413.322 498.775 412.665C499.432 412.009 500.322 411.64 501.25 411.64H501.407C501.987 411.626 502.549 411.439 503.02 411.102C503.491 410.765 503.85 410.294 504.05 409.75C504.283 409.222 504.352 408.637 504.25 408.069C504.147 407.501 503.876 406.977 503.472 406.565L503.368 406.46C503.042 406.135 502.784 405.749 502.608 405.324C502.432 404.899 502.341 404.444 502.341 403.984C502.341 403.524 502.432 403.068 502.608 402.643C502.784 402.219 503.042 401.833 503.368 401.507C503.693 401.182 504.079 400.924 504.503 400.748C504.928 400.572 505.384 400.481 505.844 400.481C506.304 400.481 506.759 400.572 507.184 400.748C507.609 400.924 507.995 401.182 508.32 401.507L508.425 401.612C508.837 402.016 509.361 402.287 509.929 402.39C510.497 402.492 511.082 402.423 511.61 402.19H511.75C512.268 401.968 512.709 401.6 513.02 401.13C513.331 400.661 513.498 400.111 513.5 399.548V399.25C513.5 398.322 513.869 397.432 514.525 396.775C515.182 396.119 516.072 395.75 517 395.75C517.928 395.75 518.818 396.119 519.475 396.775C520.131 397.432 520.5 398.322 520.5 399.25V399.407C520.502 399.971 520.669 400.521 520.98 400.99C521.291 401.46 521.732 401.828 522.25 402.05C522.778 402.283 523.363 402.352 523.931 402.25C524.499 402.147 525.023 401.876 525.435 401.472L525.54 401.368C525.865 401.042 526.251 400.784 526.676 400.608C527.101 400.432 527.556 400.341 528.016 400.341C528.476 400.341 528.932 400.432 529.357 400.608C529.781 400.784 530.167 401.042 530.492 401.368C530.818 401.693 531.076 402.079 531.252 402.503C531.428 402.928 531.519 403.384 531.519 403.844C531.519 404.304 531.428 404.759 531.252 405.184C531.076 405.609 530.818 405.995 530.492 406.32L530.387 406.425C529.984 406.837 529.713 407.361 529.61 407.929C529.508 408.497 529.577 409.082 529.81 409.61V409.75C530.032 410.268 530.4 410.709 530.87 411.02C531.339 411.331 531.889 411.498 532.452 411.5H532.75C533.678 411.5 534.568 411.869 535.225 412.525C535.881 413.182 536.25 414.072 536.25 415C536.25 415.928 535.881 416.818 535.225 417.475C534.568 418.131 533.678 418.5 532.75 418.5H532.592C532.029 418.502 531.479 418.669 531.01 418.98C530.54 419.291 530.172 419.732 529.95 420.25Z" stroke="#9F77EB" stroke-width="3" stroke-linecap="round" stroke-linejoin="round"/>
</g>
<path d="M304 402.75H276C274.067 402.75 272.5 401.183 272.5 399.25V380C272.5 378.067 274.067 376.5 276 376.5H304C305.933 376.5 307.5 378.067 307.5 380V399.25C307.5 401.183 305.933 402.75 304 402.75Z" stroke="#868686" stroke-width="3" stroke-linecap="round" stroke-linejoin="round"/>
<path d="M298.75 411.5L290 402.75L281.25 411.5" stroke="#868686" stroke-width="3" stroke-linecap="round" stroke-linejoin="round"/>
<path d="M216 463.25H188C186.067 463.25 184.5 464.817 184.5 466.75V484.25C184.5 486.183 186.067 487.75 188 487.75H216C217.933 487.75 219.5 486.183 219.5 484.25V466.75C219.5 464.817 217.933 463.25 216 463.25Z" stroke="#868686" stroke-width="3" stroke-linecap="round" stroke-linejoin="round"/>
<path d="M195 494.75H209" stroke="#868686" stroke-width="3" stroke-linecap="round" stroke-linejoin="round"/>
<path d="M202 487.75V494.75" stroke="#868686" stroke-width="3" stroke-linecap="round" stroke-linejoin="round"/>
<defs>
<linearGradient id="paint0_linear_2922_1330" x1="89" y1="287" x2="469" y2="394" gradientUnits="userSpaceOnUse">
<stop stop-color="#9F77EB" stop-opacity="0.3"/>
<stop offset="1" stop-color="#9F77EB" stop-opacity="0.8"/>
</linearGradient>
<linearGradient id="paint1_linear_2922_1330" x1="287" y1="150" x2="287" y2="448" gradientUnits="userSpaceOnUse">
<stop stop-color="#9F77EB" stop-opacity="0.3"/>
<stop offset="0.520833" stop-color="#9F77EB" stop-opacity="0"/>
</linearGradient>
<clipPath id="clip0_2922_1330">
<rect width="42" height="42" fill="white" transform="translate(496 394)"/>
</clipPath>
</defs>
</svg>
